<?xml version="1.0" encoding="utf-8"?>
<!-- Generator: Adobe Illustrator 26.0.1, SVG Export Plug-In . SVG Version: 6.00 Build 0)  -->
<svg version="1.1" id="Layer_1" xmlns="http://www.w3.org/2000/svg" xmlns:xlink="http://www.w3.org/1999/xlink" x="0px" y="0px"
	 viewBox="0 0 800 800" style="enable-background:new 0 0 800 800;" xml:space="preserve">
<path id="Australia" d="M597.6,29.8l-8.7,5.7l-1.3,23L576,70l8.5,1.3l-11.4,27.4L576,126l-24.4,56.1l-13-1.5h-8.5l-11.5-14.4
	l-50.3-23l-27.4-22.9l14.4-27.4l-4.2-8.5l12.9-1.5v-10l11.5-10l-10-10l-11.5,14.4V57l-8.7,3l5.8-5.8l-14.4,8.7l-11.5-8.7l-13,5.8
	L408,49.8l-10.2,3l-32.9-15.9l-4.3,4.3l20,7.2l1.5,11.5l-28.7,2.8l-4.3-4.3l-10,7.2l4.3,5.7l-8.7-5.7l2.8,7.2H329v14.4l-11.5,4.3
	l-8.7,18.7l14.4,7.2l-8.5,11.4l-7.2-7.2l-3,10.2l-1.3-8.7l-11.5-2.8l-7.2,7.2l2.8,10l-4.3-7.2l-2.8,7.2l4.3-17.2l-18.7-17.2l-11.5-3
	l-5.7,11.5l-1.5-7.2l-7.2,7.2l-4.2-7.2l-1.5,17.2l-7.2-8.5l-10,11.5l8.5,8.5l-14.4,1.5l10.2,8.5l-13-7.2l-5.7,10.2l2.8,7.2l4.3-4.3
	l-5.8,12.9h11.5l-11.5,4.3l-18.6-7.2v11.5l10,2.8v10l-8.7-5.7l1.5,14.4l-15.9-27.4L158,186.2l5.8,18.7l-24.5,34.6l-21.5,7.2
	l-18.6,7.2l-33.1,21.5l-11.5-3L15.9,307l-4.3,17.2l-8.7-14.4l-2.8,59l21.5,40.1l-7.2-7.2l-2.5,5.2l4,9.1l-14.4-8.5l43.1,61.8
	l5.7,18.6l2.8,11.5l21.5,30.2l1.5,30.1l-11.5,5.8l5.8,18.7l30.1,11.4l23-1.3l30.1-31.6h1.5l64.6-5.8l11.5-21.5l30.1-18.7l97.7-22.9
	l58.9,21.5l-2.8,10L428,531l14.4,31.7l-7.2-1.5l15.9,10v-10l34.4-34.4v-11.5l2.8,24.4l-10,12.9v15.9h-7.2l-4.3,8.7l17.2-3l7.2-21.5
	l8.7,14.4l-10,18.7l14.4-2.8l11.5,10l2.8,7.2l-1.5-2.8l1.5,23l4.3,5.7l10,12.9l50.3,21.5l25.9-21.5l2.8,7.2l-8.7,3h15.9l-2.8,5.7
	l14.4,11.5v-7.2l31.6-14.4l-8.7,2.8l4.3-4.3l41.6-4.3l8.7-38.8l14.4-12.9l-4.3-4.3L734,554l28.7-20l-2.8-7.2l17.2-23l7.2-23
	l11.5-28.7l-7.2-31.6l7.2-30.1l-23-46.1l-17.2-14.4v-25.7l-1.5,7.2L742.5,297v12.9l-4.2-7.2L734,307l-13-54.6L670.7,218l-4.2-44.6
	L655,161.9l1.3-33.1l-17.2-18.5l-17.2,4.2l-2.8-35.9L597.6,29.8L597.6,29.8z M11.8,407l-6-13.8l5.7,14.4L11.8,407L11.8,407z
	 M329,39.8l12.9,15.9l12.9-11.5l-11.4-1.5L339,47L329,39.8L329,39.8z M329,42.6l-7.2,10.2l12.9-1.5L329,42.6L329,42.6z M469.6,91.6
	l-7.2,8.5l-1.3,5.8l12.9,1.3L469.6,91.6L469.6,91.6z M800,362.9l-7.2,15.9l1.5,7.2L800,362.9L800,362.9z M462.5,587.1l7.2,7.2
	l20.2-5.8L462.5,587.1L462.5,587.1z M656.4,683.3v8.7l5.8,2.8L656.4,683.3L656.4,683.3z M598.9,700.5l-1.3,15.9l11.5,21.5l-5.8-4.3
	v8.7l10,15.7l13,8.7l8.5-18.7l11.5,11.5l7.2-27.4l1.5,5.8v-31.6l-25.9,8.5L598.9,700.5L598.9,700.5z"/>
</svg>
