<?xml version="1.0" encoding="utf-8"?>
<!-- Generator: Adobe Illustrator 26.0.1, SVG Export Plug-In . SVG Version: 6.00 Build 0)  -->
<svg version="1.1" id="Layer_1" xmlns="http://www.w3.org/2000/svg" xmlns:xlink="http://www.w3.org/1999/xlink" x="0px" y="0px"
	 viewBox="0 0 800 800" style="enable-background:new 0 0 800 800;" xml:space="preserve">
<g id="gAUT" transform="matrix(7.2635634,0,0,7.2635634,-807.13774,-1808.3183)">
	<path id="polyF1S17P1-30" d="M217.3,282.4v0.2l0,0.8l-0.5,1.1l-0.5,1.4l0.1,1.1l1.9,4l1.6,2.3l0.3,0.9l0.9,0.6l-0.8,1l0,1.4
		l-0.5,0.6l0,0.8l0.3,0.7l0.1,0.9l0.4,1.2l-1.4,0.4l-1.6,0.1l-0.6,0.1l-0.5,0.4l-0.6-0.1l-1.5-1l-0.9-0.2l-0.5,0.1l-0.4,0.5
		l-0.7,0.7l-0.7,0.5l0.2,0.4l3.1,0.8l0.7,1.5l-0.5,1.3l-0.1,0.7l-0.7,0.5l-0.8,0.5l-1,0.2l-0.1,0.7l0.6,2l-0.3,0.5l-0.3,0.6l0.5,1.7
		l0.6,0l0.2,0.4l0,0.7l-0.1,0.8l-0.2,0.8l0,0.4l-0.5,0.2h-1.4l-1.1,0.7l-2.2,2.5l-0.8,0.5l-0.8,1l0.2,2l-0.1,0.2l-0.2,0.4l-2.9-0.5
		h-0.1l-1.8,0.4l-1.2,1l-1.6,0.6l-3.3,0l-3.2,0.5l-0.7,0.3l-0.8,0.2l-0.8,0.6l-0.4,0.8l-0.7,1l-1.1,0.8l-1.2,0.7l-0.3,0.5l-0.4,0.3
		l-0.7-0.3l-0.5,0l-0.7-0.2l-2.3-0.2l-2.5-0.3l-1.2-0.4l-1.4-0.3l-1.5-0.2l-1.3,0l-0.6-0.1l-3.2-0.6l-2.1,0l-2.7-0.2l-5.4-0.9
		l-1.6-0.4l-1.5-0.1l-1.8-0.3l-1.4-0.6l-0.9-1.2l-0.9-1.6l-1.7-2.1l-0.4-1.1l0.5-0.9l0.5-0.7l-0.1-0.3l-0.4-0.1l-2.9,1l-2.8,1.2
		l-1.1,0l-1.1-0.3l-1.4,0l-1.4,0.3l-2.8,0.2l-1.6,0.9l-1,1.7l-0.5,1.4l-0.5,0.5l-1,0.2l-1.4-0.1l-1-0.4l-1-1.1l-1.6-0.1l-1.5,0
		l-0.4-0.2l0-0.7l-0.6-1.4l-1-0.5l-2.5,2.6l-0.7,0.2l-2-0.7l-1.7-1.1l-0.2-0.9l-0.3-0.7l-1.4-0.6l-1.8-0.5h-0.6l0.2-0.4l0.2-0.6
		l-0.1-0.5l-0.4-0.6l-0.2-0.6l-0.1-0.6l-0.1-0.5l0-0.4l-0.1-0.4l1.2-2.6l0.3-1.6l-1-0.9l1.9,0.1l0.5-0.2l0.2-0.3l-0.5-0.4l0.3-0.1
		l0.5-0.5l1.3,0.5l1.9,1l0.9,0.7l0.4,0.5l0.2,0.5l-0.1,0.8l0.4,0.3l0.9,0.1l0.6,0.2l-0.2,1l0,0.8l0.9-0.1l1.1-0.6l0.8-1.1l0.5-1.1
		l0.4-2.7l0.1-0.3l0.6,0.2l2.6-0.1l1.2,0.5l1.9,0v0.5l0.3,0.6l0.9,0.9l0.5,0.6l0.9,0.1l1.4-0.4l0.8-0.4l0.3,0.2l1.3-0.2l1.1-0.8
		l0.3-0.6l1.1-0.5l1.5-0.9l2.1-0.8l6.8-0.9l0.2-0.6l-0.1-1.4l0.2-0.2l0.9,0.3l1.4,0.3l1.1,0.5l0.7,0.6h0.6l0.9-0.5l1.4-0.3l1.3,0.6
		l0.4,0.7l-0.2,0.4l0,0.6l0.4,0.5l1,0.8l1.3,0.6l0.7,0l0.2-0.7l0.2-1.5l0-1.6l-0.3-0.9l-0.7-0.2l-0.9,0l-0.5-0.2l0.2-0.5l0.6-1.4
		l0-1.8l-1.6-2l-1.4-1.9v-0.7l0.7-1.2l1.2-1l2.6-1.6l0.8-0.3l1.1-0.3l1.5-0.7l0.7-0.7l0.5-0.8l0.6-3.7l0.2-0.2l0.2-0.2l2.7,1.2
		l0.3-0.2l0.4-0.2l0.9-1l0.2-0.8l-0.1-1.4v-1.3l0.2-0.5l0.4,0.1l1.2,0.6l0.9,0.7l0.9,1.9l2,0.4l2.6-0.1l0.9-0.9l0.8-0.3l0.9,0.2
		l2,0.2l0.1-1.6l1-1.7l0.5-0.6h1.4l0.3-1.3l0.2-3.4l0.3-0.4l1,0l1.1,0.5l0.3,0.5l0.5,0l0.7-0.4l0.8-0.3l1.4,0.3l2.9,1.4l1.4,0.5
		l0.9-0.2l0.8,0l3.5,2.1l2.3,0.2l2.1-0.2l0.6-0.8l0.9-0.7h0.9l0.8,0.3l1.7,0.9l0.8,0.2l1,0.1l0.7,0.2l0.8,1.7L217.3,282.4z"/>
</g>
</svg>
