<?xml version="1.0" encoding="utf-8"?>
<!-- Generator: Adobe Illustrator 26.0.1, SVG Export Plug-In . SVG Version: 6.00 Build 0)  -->
<svg version="1.1" id="Layer_1" xmlns="http://www.w3.org/2000/svg" xmlns:xlink="http://www.w3.org/1999/xlink" x="0px" y="0px"
	 viewBox="0 0 800 800" style="enable-background:new 0 0 800 800;" xml:space="preserve">
<g id="g4928" transform="matrix(0.87222466,0,0,0.87222466,-47.180917,-251.96054)">
	<g id="g4930">
	</g>
	<path id="path5006" d="M698.5,1081.4l0.8,0.6l2-0.7l0.4,0.9l0,0.4l-0.6,1.1l-1.7-0.6l-1.6,0.4l-1.2,0.1l-0.4-0.5l0.8-1.1
		L698.5,1081.4L698.5,1081.4"/>
	<path id="path5008" d="M742.8,1064.2l-1.9,0.7l-0.4,0l0.6-1.2l1.7-1L742.8,1064.2L742.8,1064.2"/>
	<path id="path5010" d="M745.8,1064.5l-0.3,0.5l-0.6-0.7l-0.3-1l-0.5-0.5l0.9-0.9l0.4-0.9l1.1,0l0.5,0.2l-0.9,1l-0.2,0.4
		L745.8,1064.5L745.8,1064.5"/>
	<path id="path5012" d="M758.6,1037.3l0.3,0.9l-1.7-1.2l-0.4,0l-0.8-0.4l-0.5-0.9l1.2-0.2l1.2,0.9L758.6,1037.3L758.6,1037.3"/>
	<path id="path5014" d="M843.8,985.8l-0.5,1.4l-1.1,0l-0.2-0.9l-0.3-0.2l0.2-0.9l0.2-0.3l1.4,0.4L843.8,985.8L843.8,985.8"/>
	<path id="path5016" d="M871.7,959l-1.2,1.3l-0.9-0.3l-0.2-1.3l0.3-1.3l-0.6-0.7l0.3-1.1l1-0.5l0.5,0.5l0.6,0.2l0.2,0.3l0.1,0.7
		l-0.4,1.2l0.5,0.5L871.7,959L871.7,959"/>
	<path id="path5018" d="M888.8,897.7l-1.5,0.9l-0.6,0.1l-0.2-1.5l1-1.8l0.6,0.4l0.4,0.7L888.8,897.7L888.8,897.7"/>
	<path id="path5020" d="M899,860l0,0.4l-1.8-1l-0.8,0l0.2-0.9l1-0.5l1.1,1.5L899,860L899,860"/>
	<path id="path5022" d="M902.2,854.4l0,1l-0.5,0l-1-1.6l0.3-0.5l0.9-0.1L902.2,854.4L902.2,854.4"/>
	<path id="path5024" d="M900,853.4l-0.2,0.5l-2.4-0.6l-2.4,0.4l-1-0.9l-0.5-1.6l2.5-0.6l3.4,0.7l0.8,0.6L900,853.4L900,853.4"/>
	<path id="path5026" d="M886,823.2l-1.3,1l-4.9-0.7l-3.6-1.2l-2.4-1.9l-0.5-0.9l2.3-0.4l2.3,0.3l0.7,1.2l1,0.2l0.7,0.6l4.4,0.8
		l0.7,0.4L886,823.2L886,823.2"/>
	<path id="path5148" d="M773.1,1047.5l-0.5,0.4l-1.5-1.3l-0.1-0.5l1-0.3l1.2,0.5l0,0.6L773.1,1047.5L773.1,1047.5"/>
	<path id="path5150" d="M768.5,1048.3l-2.4,0.4l-0.5-0.1l-0.3-0.4l0.8-0.9l3.1-1.6l-0.7,1.3L768.5,1048.3L768.5,1048.3"/>
	<path id="path5152" d="M774.7,1043.3l-0.8,0.6l0,1l-0.3,0.7l-2.6-0.7l-2.1-0.2l-1.9,0.5l-0.7-0.5l-0.2-0.6l2.1-1.5l0.1-0.6l0.1-0.1
		l0.6-0.7l0.9-0.3l0.5-0.4l1.3-0.2l0.8,0.1l0.8,0.1l0.1,0.1l0.5,0.7l0,0.9l0.8,0.3L774.7,1043.3L774.7,1043.3"/>
	<path id="path5158" d="M758.3,1050.2l0-0.5l0.2-0.5l0.6-0.2l0.5,0.4l0,0l-0.9,0.6L758.3,1050.2L758.3,1050.2L758.3,1050.2"/>
	<path id="path5028" d="M784.8,353.5l0.6-0.1l0.3-0.1l0.4-0.6l1.8,0.3l3.8,1.3l2.2,0.4l0.7-0.5l1.1,0.3l1.4,1.2l1.5,0.5l2.2-0.2
		l2.6,1l0.9-0.2l0-1l0.6-0.7l1.2-0.5l2.1,0.2l3,1l1.7,0.3l0.5-0.4l0.7,0.1l0.8,0.6l0.4,0.9l0,0.6l0.9,0.6l0.7-0.2l1.2,0.1l1.4,1.2
		l1,0.4l0.7,0.4l0.3,0.4l0.2,0.5l0,0.4l-0.1,0.7l0.2,0.7l0.6,0.6l1.5,0.1l0.7,0.4l0.4,0.7l0.7,0.7l1.2,0.6l0.6,0.7l0,0.7l0.5,0.4
		l0.6,0.3l0.7,1.4l0.4,0.8l1.1,0.7l0.9,1.9l1.3,2l2.8,2.4l1.2,1.4l0.6,1.9l0.6,0.8l1,0.2l0.7,0.7l0.4,1.2l0.6,0.6l0.5,0.7l0.3,1.3
		l0.7,1l0.6,0.5l0.7,1.1l0.7,1.4l2.1,1.9l3.4,2.5l2.3,2l1.2,1.6l0.6,1.4l0,1.3l0.3,0.8l0.6,0.4l0.4,0.7l0.2,0.9l1.1,0.8l3.1,1
		l0.1,3.1l0.5,2.1l0.9,2l1.2,1.3l1.4,0.5l1,0.7l0.6,0.8l1.7,0.6l2.7,0.3l3-0.8l3.3-2l2.2-0.9l1,0.2l0.6,0.6l0.1,1l0.9,0.4l1.6-0.2
		l1.3,0.2l0.9,0.7l0.8,0l0.7-0.7l0.8-0.2l1,0.2l0.4-0.4l0.2-0.7l0.7-0.3l0.7-0.2l1,1.2l1,0.5l1.1-0.2l2.2,1.1l4.9,3.5l2.6,0.9
		l2.2-0.2l2.5-0.8l1.5,1.5l0.1,2.1l0.5,1.6l0.8,0.3l1.5,1.5l1.5,0.7l0.6,0.8l0.9,0.8l0.5,1.8l0.1,2.9l1.2,2.1l2.2,1.3l1.6,1.4
		l0.9,1.6l0.8,0.9l0.7,0.2l1.5-0.7l2.2-1.6l1.9-0.6l1.5,0.4l2.9-1.1l4.2-2.6l2.8-1.4l1.3-0.2l0.6-1.5l-0.1-2.8l0.4-1.5l0.9-0.2
		l0.9-1.3l1-2.4l1.2-1.5l2-0.7l2.1-0.8l1-1.3l0.5-2l1.5-2.2l3.6-3.6l0.9-0.7l0.5-0.1l1.6-0.4l1.6,0.1l1.8,0.8l0.6,0.8l0.4,1.2l0,0.8
		l-0.2,1l0.1,1.4l0.7,0.8l1.6,1.7l1.3,1.2l1.4,1.4l0,0.7l0.2,1.4l-0.3,2.5l-0.3,1.1l-0.4,1.1l-1.2,0.7l-0.4,0.4L966,430l-0.1,0.9
		l-0.2,0.7l-0.3,1.3l0.3,0.9l0.9,1.1l0.8,1.3l-0.3,1.5l0.2,2.1l0.1,0.6l0.3,1.5l0.1,0.5l1.1,3l0.1,2.3l-0.1,2.8l0.9,1.3l0.8,1.2
		l0,0.7l0.2,0.6l0.4,1.3l-0.2,0.6l-0.7,1.2l-0.2,1.2l0.7,1.4l0.2,1.4l0,1.3l-0.2,0.9l-0.5,0.8l-0.3,0.6l0.2,1.5l0.3,1.1l0.1,1.2
		l0.7,1l0,1.1l-0.8,1.1l-0.4,0.6l-0.5,0.4l-0.6,1.5l0.5,3.9l0.6,2.1l1,1.7l-0.8,1.7l-0.6,1.3l-0.7-0.1l-0.8,0l-1.7,0.2l-0.9,0
		l-1.8,0l-2.7,0.2l-2.7,0.1l-1.7,0.1l-1.3,0.1l-1.1-0.2l-1.2-0.8l-0.6,0.7l-0.2,1.5l-0.9,1.2l0,1.6l0,1.3l-0.6,1.9l-0.3,0.8l-2,1.9
		l-0.4,0.5l-1.9,1l-0.5,0.7l-0.3,1.2l0.2,1l0.9,0.8l1.5,1.6l0.9,1.2l1.5,2.4l4.9,7.4l0,1.6l1.8,6.3l0.5,1.1l0.6,1.7l0.5,1.2l0.5,0.2
		l0.6,0.3l0.5,0.6l0.4,1.1l0.1,0.9l0.2,1.8l0.4,2.6l-0.2,1.1l-0.1,0.9l-0.1,0.6l0.6,1.7l0.2,1.2l-0.7,0.7l-0.6,1l-1.1,0.2l-0.9,0.5
		l-1,0.9l-1.8,1.3l-0.9,1.1l-0.4,0.7l-0.2,0.7l0.1,0.6l0.4,0.2l1.2-0.2l1.2,0.8l0.5,1.1l-0.6,1l-0.7-0.6l-0.8,0l-1.6-0.5l-1.3-0.8
		l-1.1-1l-0.9-2.6l-0.3-0.4l-1.4-0.1l-0.7-0.6l-0.7-0.2l-0.8,0.5l-0.7,0l-0.7-0.2l-0.6,0.2l-0.3,0.9l0.3,1.6l0,2.7l0.4,1.5l0.4,2.2
		l0.6,2.8l-0.1,0.7l-1,0.4l-0.3,0.3l-0.2,1.1l-0.6,0.4l-0.7-0.3l-1-0.2l-0.8,0.2l-0.5,0.8l-0.5,1.5l-0.2,1.1l0.1,0.9l0.2,1.1
		l-0.5,1.3l-0.6,0.8l-1.1,2.1l-0.3,0.8l-1.2,0.4l-1.3,0.4l-1.6,1l-2.8,1.2l-1.8,0.3l-2,1l-1.5,1.1l0,0.8l0.4,1.1l0.6,0.6l0.6,0.3
		l1.2,1.2l1.2,1.2l1.4,0.5l0.8,0.8l0.3,0.9l-0.1,1.3l-0.3,1.8l-0.4,1.2l-0.6,0.2l-1-0.3l-0.8-0.5l-1.5,0.2l-3.2,1.6l-1.8,0.3l-1-0.3
		l-1.4,0.4l-2.4,0l-1.4,0.2l-0.8-0.3l-0.5-1.1l-0.9-0.6l-0.6-0.8l-1.2-0.9l-0.9-0.3l-0.8,0l-0.6,1l-0.7,0.9l-0.7,0.1l-0.3,0.3
		l-0.2,0.6l-1.1,1.5l0,1.1l0.1,2.2l0.3,2.2l-0.1,0.9l-0.5,0.3l-0.4,0.8l-0.6,2.4l-0.5,2.2l-1.2,1.8l-0.4,1.4l-0.1,1.2l-0.7,1.8
		l-1.6,0.8l-1.2,0.8l-0.8,0.4l-0.4,0.8l-0.2,1l-0.1,0.4l-0.8,0.2l-0.5,1l-1.4,2.3l-1.4,0.8l-1.6,1.7l-1.4,1.4l-0.6,0.7l0,0.6
		l-0.1,0.8l-0.8,0.4l-0.8,0.2L888,622l-0.5,1.6l-2.7,3.9l-1,2.1l0.2,2.2l-0.2-0.1l-0.8,2.2l-2,2.5l-5.2,1.9l-2-0.8l-0.4,1l-0.2,1.3
		l-1.3,0.8l-2.2,0.7l-1,1.1l-0.4,1l-2.9,1.1l-0.8,1.4l-1.8,0.9l-6.6,7.1l-1.2,2.6l-1,2.9l-0.9,1.5l-0.8,1.1l-0.9,0.6l-0.7,1.1
		l-0.9,0.3l-1-0.1l-1,0.4l-0.5,1.2l0.9,1.2l-0.2,0.7l-1.9,1.3l-3,1.3l-1.1,1.2l-0.3,0.6l-0.6,0.4l-1.1-1.6l-0.8-2.2l1.2-0.9l1.1-0.6
		l5.9-4.8l-1.4-2.2l0.3-1.2l1.1-2.1l0.8-1.1l-0.6-0.2l-4.2,1.6l-2.5,0.6l-1.3,0.1l0-1.5l-0.6-1.4l-0.4-0.5l1.8-2.2l0.9-0.7l0.8-0.2
		l-0.3-1l-1-1.3l0.2-2.1l3.9-3.4l0.6-2.3l1.3-2.4l2-5.6l0-0.9l0.4-2.5l-0.1-0.9l-1.8-0.9l-1.1-1.7l-5.2-2.1l-1.1-2.7l-0.4,0.2
		l-0.2,2.1l-0.4,0.8l-2,0.6l-1.1-0.5l-5.7,0.9l-1.1,1.6l-0.8,2.3l-0.9,1.7l-1.1,1l-0.8,1.5l-2.8,8.7l-1.6,1l-7.1,6.5l-3.7,2.8
		l-2.5,3.9l-0.7,2.2l-0.5,2.4l0.1,3.4l-2.1,4.6l-0.8,1.1l-1,0.6l-1.4,0.2l-1.1,0.5l-2.1,0.1l-2.2,1.8l-2.6,1.7l-3-2.2l-1.9-0.3
		l-2.7,1.4l-1.1,1.5l-1.5,6.6l-0.4,3.7l0.3,1.4l2.4,4l2.3,2l4.6,1.9l9,0.1l1.9-1.1l2.2-0.5l2.7,1.3l2,2.7l0.5,2l0.2,0.7l0.6,0.5
		l0.5,1l-0.7,1.1l-0.6,0.6l0,3.3l0.7,3.5l1,1l2.2,1.2l3.2,0.7l2.7-0.3l5-1.8l1.6-2.6l-0.3-0.9l-0.2-1.2l3.8-4.1l1.9-3.3l-0.6-0.6
		l-0.6-0.4l0.4-0.4l1.3-0.5l5.5-4.3l5.4,1.1l3.4,2l2.8-0.2l2.2,0.9l2.5,0.6l2.9-0.6l2.5-0.4l0.5-1.3l0.6-0.9l0.9-0.1l1.3,1.2l3,0.4
		l2.5-0.7l1.7-0.9l1.2,0.2l-1.1,2.2l0.9,2.8l-0.9,1.2l-0.8,1.8l0.9,0.8l0.7,0.3l0.2,1.2l-0.9,0.9l-1.5,2.3l-1.1,0.3l-0.6-0.2
		l-0.5-0.5l-0.5-0.9l-0.8-0.5l-1.9,0.2l-1.8,0.7l-3.7,3.7l-3.7,3.1l-4,2.8l-1.2,1.4l-1,0.5l-2-0.3l-1.1,0.3l-0.1,0.6l1.7,1.1
		l0.6,1.1l0,0.9l-0.7,0.6l-1.3-0.4l-0.9,1.2l-0.2,1.7l0.8,3.7l-0.5,1l-1.9,0.9l-1.8,1.7l-0.9-0.4l-0.4-0.6l-0.1-1.7l-0.4-0.8
		l-0.9,0.3l-1.3,0.8l-0.9,1.4l-0.2,0.8l1.9,1.8l1.4-0.1l0.4,0.4l-0.9,1.3l-2.4,2.2l-0.2,1.4l-0.6,1.5l-0.9,1.3l-0.5,1.2l-0.8,0.8
		l-1.4,1l-1.4,3l-0.9,2.7l-1.4,1.6l-0.5,4.3l-1.9,2.7l-0.2,3.7l1,2l2.6-0.6l1.4,0.5l3.2,2.2l3.5,1.1l3.5,0.3l4.6,1.7l1.3,0.8l1.4,2
		l3,6l1.9,2.9l0.4,1.6l2.5,2.7l3.1,4.9l3.3,4.1l1.2,3.6l-0.4,1.9l0.4,2.2l2.8,1.4l5.7,1l1,0.5l1.2,0.9l0.8,3.5l1,0.9l0.8,0.5
		l3.5,0.7l1.6,0.9l1.8,1.6l0.8,1.7l0.7,2.3l-1.8,0.5l-1.5,0.1l-6.3-1.7l-1.5,0.3l-2,1l-3.1,0.2l-3.8-2.7l-2.5-0.5l-2.5,0.1l-5.3,4.4
		l-1.5,0.1l-0.4,0.4l-0.6,0.7l2.8,0l2.5-1.6l2.3-2.1l3.9-0.2l0.9,1.1l1,2l2.9,0.8l2.2,0.1l3,1.3l3.1,2.4l6.1,2.1l2.8,2.8l1.3,1.9
		l1.4,2.9l-1.7,1.5l-1.6,0.6l-2.5,1.1l-1.7,1.6l-1.5,2.4l-4.9,4.4l-0.7,2.1l-0.4,1.8l-1.2,1.1l-3.5,0.1l-3.2,0.8l-3.2,3.1l-0.7,1.1
		l0.6-0.3l0.5-0.4l1.7-0.1l2.3-1.8l3.1,3l4.7-1.8l3.9-4.1l1.7-0.5l1.5,0.1l1.8,0.8l5.3,4.1l2.5,0l2.6,0.6l1.3-0.2l1.2,0.1l-2.8,2.7
		l-3.3,5.2l-1.6,1.4l-1,1.4l3.2-1.4l1.9-2.6l1.1-0.8l1,0.2l0.9,2.3l0.5,7.7l-1.1,0.4l-1.5-1.7l-1.4-0.3l-1,0.7l-2.2,0.5l-0.7,1.1
		l-0.5,1.5l1.4-0.1l3,1.6l0.5,1.1l-0.5,1l-1.9,0.1l2.5,1.1l-0.3,1.9l-0.6,0.9l-1.2,0.8l-0.5,1.7l1.6,2.2l1.7,3l0.4,1.5l-1.9-0.2
		l-2.4,2.7l-1.5,0.5l-1.5-2.4l-1.2,0.7l-0.7,1l-0.6,3.1l-0.9,2.9l-1.1,1l-1.5,0.2l-1.2,0.4l0.4,0.6l1.4,0.5l0.2,1l-2.1,3.7l-0.2,1.3
		l0.2,1l-1.2,1.6l1.1,1.9l-0.1,1.6l-0.9,2.3l-1.1,1.6l-1.2,2.5l-1.7,1.7l-1.8,5l-0.4,2.4l0.2,2.3l-0.7,1l-1.2,1.3l-1.7-0.1l-0.3-1.5
		l-0.7,0l-0.5-0.9l-0.3-1.2l0-1.1l-0.6,0.5l-0.2,1.3l-0.9,1.2l-1.1-0.1l-1.3-0.5l0.2,1.1l0.8,1l0.4,1.1l1.7-0.1l1.3,1.1l1.2,1.8
		l0.3,0.7l0.8,0.7l0.2,0.7l-1.4,1.1l-1.7,1.8l-2,2.8l-1.7,2l-1.7,0.4l-1.1,0.1l-1.6-0.5l-1.8,0l2.8,2.6l1.4,0.3l1.6-0.5l1.4-1.5
		l2.2-0.4l0.8,1.6l-0.3,2.1l-0.8,2.9l0.1,2.3l2,2.9l0.2,1l-0.5,0.6l-1.9-0.4l-1.6-0.7l-1.4,0.6l-1.6-0.1l-1.5,0.7l-0.5,0.9l0.6,1.1
		l1.5,0.7l1,1.4l-0.9,0.8l-4,0.5l-0.8,0.5l-0.9,2l1.1,2.4l-0.6,1.8l-1.6,0.7l-2,1.7l-1.3,0.6l0.1,0.5l1.1,0.3l0.6,0.6l-0.8,2.9
		l-1.7,1.2l-2.9,0.2l-2.1,1.1l-2.1-0.7l-2,0.4l-1.2,1.7l0.1,1.7l-1.3,0.4l-0.7,0l-1,0.3l0.2,0.8l0.7,0.6l2.8-0.2l0.6,1l0.3,1.7
		l-2.5,3.5l-1,2.2l-1.9,0.3l-1.2,1.9l-0.5,2.3l-1-0.2l-2.1,0.8l-0.5,1.1l0.6,0.3l0.1,0.7l-0.6,2.6l-0.9,0.9l-0.5-0.9l-0.5-1.5
		l-0.8,0l-1.1,1.7l-1.3,1.3l-1.2,0.7l-1.1-0.7l-2.4,0l-0.5,4.2l-1.8,1.8l-0.9,0.6l-1.6,0.4l1.1,0.4l0.4,1l-0.5,1.1l-1.6,0.5l-0.8,1
		l0.1,3.7l-0.8,1.4l-2.4,0.6l-1.9-0.5l-0.5,0.8l-0.2,0.7l-0.9,0.8l-1.8,0.5l-3.9,2.4l-1.9-0.1l-2.3-0.2l-1.5,0.9l-0.4,1.3l-0.6,1.1
		l-2.3,0.4l-1.9-0.9l-1.9-0.5l-2,1.1l-1.4,1.8l-1.9,0.8l-0.3,1l-0.8,0.6l-2,0.1l-1-2.2l-1.2-0.1l-1,1.4l-0.3,1l-0.5,0.8l0.4,1.9
		l-1.1,0.2l-1.6-0.9l-1.6,0.1l-1.4,1.3l-0.8-0.1l-0.8-0.1l-1.3,0.2l-0.5,0.4l-0.9,0.3l-0.6,0.7l-0.1,0.1l-1.7-0.1l-2.2-1.3l-1.7-2.4
		l-2-1.1l-0.9-1.1l-0.5-2.2l-0.4-1l0-1.2l0.5-1.1l-1.9,0.8l-1.4,1.2l0.4,1.2l-0.3,1.2l-2.1,0.9l0.2,0.5l0.2,0.5l1.9,1.3l0.5,1.3
		l0.8,0.6l1.5,1.8l0.3,3.9l0.8,1l-0.1,1.1l-0.4,1.6l0,0l-0.4-0.4l-0.6,0.2l-0.2,0.5l0,0.5l-0.1,0l-1.1,0.5l-0.9,0.4l-0.7,0.5
		l-1.1,1.4l-2.3,0.6l-1.4-2.6l-1.4,2.1l-0.1,3.8l-0.5,0.7l-0.9,0.7l-2-1l-1.6,1.1l-1.2,1.1l-0.5,0.9l-0.9,1l-1.9-0.6l-1.6-1.1l0.3-1
		l-0.3-0.6l-0.7-0.4l-0.7,0.2l0.5,1.2l0.4,2.4l-0.6,0.8l-1,0.7l-2.3-0.1l-1.6-0.7l-1.9-0.5l-1.6,0.1l-0.2,1.6l-1,1.4l-1,0.3l-1-0.1
		l-1.2,1.5l-0.5,1l-1.5,1.2l-4.2,1l-1.4,1.2l-2,0.1l-1.5,0.4l-0.9,0.1l-0.8-0.4l-0.9,0.1l-0.3,1.7l-2.3,1l-2.1,0.5l-2.2,2.5
		l-1.6,1.5l-1.3,0.3l-1-0.4l-0.6-1.9l-0.5-0.2l-0.1,1.9l-0.4,1.6l-0.8,1l-2.6,2.3l-0.7,2l0.6,1.7l3.8,0l0.5,0.9l-0.3,0.8l-0.8,0.8
		l-0.2,1l4.2,2.7l0.2,1.2l-0.6,0.8l-0.7,1.6l-2,1.5l-4.4,1.2l-3.8-0.2l-1.2-1.3l0-1l0.9,0.2l1.1-0.2l-0.4-0.9l-0.5-0.5l-1.8-0.6
		l-1.5-2.1l0.1-1.9l-0.9-1.3l-0.9-1.1l-0.9-0.6l-0.5-0.8l0.7-2.9l-0.6-1.6l1.5-2.2l0.2-2.3l2.8-1.1l0.1-2.2l-2,0.2l-1.5-1.4
		l-0.3,0.7l-1.1,0.2l-2.1-2.8l-0.6-0.3l-0.9,0l0.7,3.2l-2.1,1.4l-1.8,0.7l-2.5,0.5l-1.4,0.5l-1.4-0.2l0.3-1l0.6-1.2l-0.7-0.9
		l-1.5-0.6l-2.2,0.3l-1.5-0.1l-1.5,0.2l-0.6-0.4l-1.5-1.4l-1.2-0.8l-0.6-0.9l0.5-1.2l-0.5-0.6l-2.3,0.1l0.1,1.6l0.3,1.8l0.7,1.3
		l-0.4,0.8l-1.1,0.7l-1.3-1.4l-0.6-0.3l-0.6,0.1l-0.4,1.5l-1.1,1.4l-2,0l-1.5,1l-1.9,0.5l-1.4-1l-2.2-1.6l-0.9-0.1l-2.3,1.1
		l-3.4,0.6l-0.8-0.8l-1.6,0.8l-1.7-2l-1.9,0l-2.4-1.4l-0.9-0.8l-0.3-1.2l-0.7-0.6l-0.9,0.2l-1.1-0.6l-1.6-0.5l-1.3-0.3l-0.6,0.3
		l-0.7,0.2l-0.2-0.8l-0.1-2.5l-0.2-2.2l-0.4-1l-0.9-0.7l-0.8-0.3l-0.4-1.1l0.2-2.2l0.6-1.5l1-0.3l1.3-1.2l0.6-1.6l0.8-1.5l-3.2-1.8
		l-1.7-0.6l-1.8,0.4l-2.2,0.8l-1.2,0.2l-0.6-0.2l-1.4-1.7l-0.7-0.3l-1.6,0l-1.4,0.1l-0.7,0.8l-1.2,0.3l-1.2,0.1l-1.3-0.9l-1.9-1.1
		l-2.9-0.7l-0.4-1l-0.8-1.2l-1.1-1.1l-1.9-1.4l-1.5-0.7l-0.7,0.5l-1,0.9l-3.8,2l-1.7,0.8l-0.9,0.6l-0.7,0.8l-0.2,1.9l-0.3,2.1
		l-1.1,1.1l-1,0.9l-1.1,0.1l-1.1,0l-1,0.4l-3.1,2.2l-1.5-0.1l-1.2-1.1l-0.5-0.8l-1.4,0.3l-1.8,1.1l-0.8,1.8l-0.4,1.7l-0.4,0.8
		l-0.6,0.2l-0.5,0.1l-5.7-4.6l-0.4-0.2l-1,1l-0.8,2.6l-0.6,0.5l-0.4-0.2l-2.4-3.2l-0.6-0.3l-0.5,0.1l-0.7,1.1l-1.4,1.6l-1.1,1l0,1.1
		l-1.2,1l-1.4,1l-0.5,0.1l-1-0.3l-1.3-1.2l-0.9-1.3l-2.2-1.2l-2.5-1l-1.7-0.8l-0.9-0.2l-0.9,0.4l-0.4,0.5l-0.6,1.3l-1.5,2.1
		l-1.3,1.7l-1.2,1.1l-1,0.8l-0.7-0.7l-1.4-0.5l-1.6,0l-2.1,1.1l-1.7-2.1l-0.4-0.1l-0.6,0.2l-0.7,0.5l-0.5,1.2l-0.5,1.6l-1,1.1
		l-0.9,0.5l0.3,0.9l0.5,1l0,0.9l0.3,1.4l0.6,1.4l2,2.2l0.8,1.2l0.2,1l0.1,3.6l-0.1,1.5l-0.4,2.9l0,1.7l0.8,0.7l0.8,0.9l0,0.5
		l-0.3,0.2l-1.1,1l-0.5,0.1l-0.7-0.4l-1-0.3l-0.8-0.4l-0.9-0.6l-2,0.1l-3.3,1l-0.7-0.3l-0.5-0.5l-0.3-1.1l0.2-1.3l-0.3-0.8l-0.6-0.5
		l0.4-2.4l-1.2-0.9l0.2-0.3l-0.4-2.6l0-0.6l-0.2-0.2l-0.8-0.2l-1.2,0.4l-3.7,1.7l-3.2,3.1l-1.5,0.7l-1.5,0.3l-1.7-0.5l-1.9-0.3
		l-2.8,0.8l-1.4-0.4l-0.6-0.6l-0.6-1l0.3-1.2l-0.2-0.9l-1.1-0.5l-1.3-0.4l-0.8-1.2l-0.3-1.3l0.3-1.7l0.2-1.8l-0.6-0.8l-1.9-0.5
		l-4.7-0.8l-4.1-0.5l-1.7,0.2l-1.4-0.2l-0.8-0.3l-0.4-0.6l0-0.8l0.7-1.9l0.8-1.8l1.9-2.7l0.1-1.8l-0.1-2.1l1-2.8l1.7-2.1l0.8-0.7
		l-0.2-1l-0.7-0.9l-0.9-0.5l-1.6-0.6l-2.4-0.2l-3.3-0.6l-3.8-1.3l0.5-2.4l0-1.5l-0.5-1.3l-0.8-0.9l-0.4-0.8l0.7-2.2l-0.9-2.4l-1-1
		l-1.1-1.3l-0.1-1.3l0.5-1.2l2.7-2.6l0-0.6l-0.7,0l-0.8,0l-3.6,0.9l-0.4-0.6l-1.3-0.4l-2.6-0.1l-3.1,0.1l-3.9,0.9l-3.6,1.6l-1.7,1.1
		l-1.4,0.7l-1.1,0.2l-1.3-0.5l0.1-1.6l2.5-2.9l0.4-2.1l-0.7-1.8l-0.1-1.4l-0.8-0.9l-1.2-0.5l-0.6-1l0-2.9l1.1-3l1.8-0.9l1.1-0.4
		l0.3-0.6l-0.5-2.1l0.1-1.4l1.1-2.6l1.1-2l1.9,0.4l0.9-0.5l1-0.7l1.1-1.2l0.7-1.4l0.9-3.3l0.6-0.5l2.4,0.6l0.7-0.4l1.4-1.9l1.3-2.3
		l1.8-0.7l1.3-0.1l0.6-0.8l0-1.2l-1.2-1.8l-0.5-1.5l0.2-0.9l1.8-0.5l0.5-1.1l-0.2-2.3l0.8-2.8l0.5-3.3l0.2-2.4l0-1.9l-0.2-2
		l-0.2-3.6l-0.8-3.1l0.2-1.2l-0.1-3.8l-0.5-3.2l-1-0.6l-1.8-1.1l-1-0.2l-0.9,0.4l-0.3,1.1l-0.8,1l-1-0.3l-0.5-1.1l-0.6-1.4l-2-6.6
		l-0.2-1.9l-0.3-1.9l-0.7-1l-0.7-0.6l-1.7-2.2l-0.9-0.9l-0.4-0.2l-0.9,0.1l-0.9,0l-0.7-1.1l-0.7-1.4l-0.7-0.7l-1.1-0.4l-1.2,0.1
		l-0.7,1.1l-0.5,0.6l-0.9,1.5l-1.5,2.1l-0.7,0.8l-0.6-0.4l-2.7-2.3l-1.3-0.7l-1.8,0.6l-2.8-0.6l-1.1-0.1l-2.3-1.9l-1-0.3l-3.4,1
		l-0.8,0.8l-0.4,0l-0.9-0.4l-0.7-0.6l0-0.3l0.9-0.8l0.1-0.6l0-0.6l1.4-1.7l3.7-3.2l-0.6-1.4l-1.3-2.8l-0.2-1.4l-0.6-0.6l-1.7,0.4
		l-3.6,2.4l-0.5-0.3l0.1-0.9l-0.3-2.6l1.1-0.7l1.7-0.9l1.4-1l0.3-0.8l-0.3-0.3l-2,0.2l-0.7-0.6l-1.2-2.4l-0.9-1l-0.8-0.5l-2.9,1.1
		l-3.4,1.5l-3.8,2.1l0,1.2l-0.5,0.3l-0.7,0.7l-0.7,1l-0.6,0.3l-0.7,0L397,923l-2.5-1.3l-2.7-1.1l-0.6,0.1l-3.7-0.9l-0.1-0.6
		l-0.5-1.1l-1-1l-1-0.4l-3,1.9l-3.4,1.3l-2,1.7l-1.7,1.7l-1.8,0.2l-0.1,1.1l-0.8,1l-1.4,1.1l-2.8,1.4l-1.9,0.7l-5.9,0.4l-2.1,0.4
		l-0.9,0.8l-1.1,2l-0.9,1.9l-1.7,1.5l-3.1,1.9l-3.6,1.5l-1,1.1l-0.2,0.7l0.4,0.3l0.4,0.6l0,0.8l-0.5,0.8l-2.4,1.3l-1.3,0.6l-1.3,0.3
		l-1.4,0l-1.3-0.3l-0.4-0.3l-0.6,0.3l-1.3,0.2l-1.1,0l-2.5,1.4l-1.3-0.1l-1.6-0.5l-2.1-0.5l-1.5-0.1l0-0.9l0.4-2.6l-0.7-0.7
		l-2.1-0.8l-2.3-1.1l-1.1-1l-0.6-0.4l-0.9,0.1l-1.5,0.8l-1.5,1l-1.1,0l-1.1-0.6l-1-0.8l-3.6-1.3l-1.6-0.3l-2.9-0.1l-2.4-0.5
		l-0.4-0.3l0.1-0.5l0.4-1l0.3-1l-0.2-0.6l-2.4-1l-2.2-0.8l-2.3-0.5l-1.6,0.2l-1.6,0.6l-1.4,1.3l-1.9,0.4l-2.3,0.8l-1.2,0.9l-1.8,2
		l-2.6,2.4l-2.4,2.3l-1.3,2.4l-1.6,1.4l-1.6,1l-1.4,3l-1-1.1l-1.2-1.6l-0.1-2l2-5l0.6-2.1l-0.3-0.9l-0.3-2.2l-0.8-0.8l-2.5-1.4
		l-0.8-0.1l-1,0.7l-0.9,0.4l-1.2,0.3l-2.9,0.5l-2.6,0.1l-0.6,0.3l-0.3,0.6l0.1,0.8l-1.6-0.5l-1.7-0.4l-1.4-0.1l-3.5,0.9l-1.2,0
		l-1.3-0.3l-1.7-0.3l-3.3-0.4l-2.8-0.8l-2.1-2.3l-1.5-1.1l-1.7-0.9l-1.7-0.7l-0.5-1.1l-0.5-0.6l-1.4-0.4l-1.2,0.2l-1,2.5l-0.7,0.4
		l-1.5,0l-1.4-0.9l-1.9-1.7l-0.6-1.6l-0.6-0.6l-1.2,0.5l-0.3,1.9l-0.4,1.2l-1.4,0.3l-0.7-0.5l-0.5-1.4l-1.2-3.3l-1.3-2.1l-1.4-1.5
		l-5-0.8l-3.7-1l-1.6-0.8l-0.5-1.3l0.9-2.3l1-1.7l0-0.4l-0.6-0.3l-1-0.3l-4.1,0.5l-1.1-0.3l-0.6-0.5l-0.8-0.5l-0.6-0.7l-0.4-0.9
		l-3.2-2.6l-0.9-1.3l-1.6-1.7l-1.4-1.2l-0.6-2.8l-0.5-2.7l-0.3-1.4l-1.4-1l-1.5-0.8l-2.8,0.6l-2.3,0.4l-1.6-0.2l-2-3l-1.4-3.2
		l-1.8-2.9l-1.3-1.5l-2.6-0.6l-2.7-2l-3.4-3.9l-2.4-2.9l-4.4-3.6l-0.9-1.3l-0.3-1l-0.4-2l-0.7-1.9l-3.3-1.5l-3.7-1.3l-4.2,0.2
		l-3.8,4.6l-1.6,0.8l-1.2-0.2l-0.8-1.5l-0.6-1.6l-0.2-1.6l-1.8-1.6l-2-2l-1-1.4l-1.2-1l-1.2-0.6l-2.2-1.5l-2.4-1.7l-1.2-0.4l0.1-0.8
		l0.7-1.6l0.1-1.7l-0.7-0.8l-1.2-0.1l-2.4-2.9l-0.1-0.1l-0.7-0.8l-1.2-1.2l-2.3-0.5l-1.8-0.1l-1.1-1.3l-1.6-1.9l-0.3-0.4l-0.4-0.7
		l-1.3-3.3l-1.5-3.9l-1-0.8l-0.6,0.1l-1,1.6l-0.5-0.3l-0.8-0.1l-1.1,0.4l-1-0.1l-0.6-0.3l-0.2-0.5l0.7-2.3l-0.4-0.9l0.8-1.5l1.1-1.2
		l-0.6-1.3l-0.7-1.8l0.2-1.4l0.9-1.6l0.6-1.4l-0.1-0.6l-0.7-1l-2.3-4.9l-0.1-0.5l-0.3-1.5l0.2-2.1l-0.1-1.6l-0.2-1.2l0.1-0.5
		l0.4-0.2l2,0.2l1.8,0.3l1.3-0.1l0.5,1l0,1.3l0.2,0.7l0.9,1.5l1.2,1.5l1.4,0.2l1.3-0.2l1.4-1.6l0.8-0.3l0.9,0.1l0-0.1l0.2-1.2
		l0.9-2.9l0.1-1.2l-0.2-1.2l0.3-1.2l0.2-1.8l-0.7-1.4l-0.5-0.6l0-0.7l0.6-1.1l0.5-1.3l-0.1-1.1l0-0.2l-0.7-0.7l-0.7-1.1l-0.9-1.4
		l-0.4-1l-0.7-1.2l-0.8-1.7l0.5-3.3l0.6-3.4l0-1.8l0-2.8l0.3-0.9l0.5-0.6l3.5-1.4l0.8-0.7l0.2-0.6l0.1-1l-0.4-1.2l-1-1.1l-1.4-1.8
		l-1.3-1.8l-2.4-1.5l-2.9-1.8l-0.5-1.2l-0.2-2.7l-0.5-4.1l-0.5-4.4l-0.5-2.7l0.2-1.2l1.3-2.9l0.1-0.7l-0.5-0.4l-1.1,0.1l-1,0.3
		l-0.7-0.4l-0.6-0.7l-0.1-0.2l0-0.1l-1.3,0l-2.5-0.5l-0.9-0.3l-1.2-0.4l-2.3-1.4l-3.2-1.8l-3.2-2.2l-1.6-1.5l-0.6-0.5l-1.3-1.5
		l-0.9-1.2l0.4-2.5l-0.8,0l-2.1,0.3l-2.3-0.1l-1.2-0.3l-0.4-0.5l-0.1-2.7l-0.4-0.9l-0.9-0.6l-0.9-0.8l-0.4-0.8l0.1-0.9l0.7-0.8
		l0.7-0.6l1.2-4.5l0-1.7l0-1.4l-0.3-1.9l-0.5-1.2l-0.8-1.3l-1.4-1.5l-1.4-0.8l-2,0.2l-0.5-0.4l0-3.3l-0.3-0.8l-2.9-2.2l-1.4-0.7
		l-1.8-0.1l-1,0.1l-0.6-0.8l-1-1.1l-1-0.8l-1.4-0.5l-1,0l-0.2-0.3l-0.3-0.7l-1.5-2.3l0.1-0.4l3.4-0.8l1.9-0.1l1-0.2l0.2,0.2l0.2,0.9
		l1,0.9l0.8,0.1l0.5-0.3l1.7-0.5l1.4-0.7l0.9-0.7l0-1.5l-1.3-2.2l-0.9-1.2l-0.2-0.7l0.8-1.7l0.9-1.7l-0.1-0.8l-0.2-0.7l0.4-2
		l-0.1-2.6l-0.4-1.6l0.3-1.9l0.4-1.8l1.7-2.4l0-1.3l-0.8-1.4l-3-3l-3.3-2.4l-1.4-0.4l-0.8-0.3l-1.3,0.8l-1,1.3l-0.9-0.1l-1.4-1.1
		l-0.8-1.3l-0.2-2.2l0.1-2.7l-0.1-0.9l0.4-0.6l0.5-0.5l1.1-0.2l0.3-0.5l0.1-0.8l-0.5-1.1l-0.4-1.5l-0.5-3l0.7-1.4l0.8-2l0.3-1.1
		l1.4,0.1l1.8,0l1-0.7l0.8-0.8l0.3-0.6l0.2-2.4l-0.3-1.2l0.2-0.8l0.5-0.5l0.7-0.9l1.4-1.9l1.2-1.1l0.5-0.2l1.1,0l2.5,0.4l2.8-0.2
		l3.9-1.9L78,621l1.4,0l0.9,0.3l0.3-0.3l-0.1-1.9l0.3-0.6l0.5-0.4l0.5-0.1l1.8,1.6l1.6,0.4l2.1,0l5.1-1.9l0.5,0.2l0.3,0.5l0,2
		l-0.5,4.1l0.2,0.6l3,0.9l2.4-0.9l1-0.1l1.4,0.6l0.9-0.5l0.9-0.2l0.5,1.9l1.4-0.5l1.6-0.9l1-1.1l1.2-1.2l1.2-1.6l0.7-1.6l0.5-0.7
		l0.9-0.6l2.7-3l1.5-0.5l1.3,0l2.8,1.4l1.6,0.3l4.4,1.7l2.3-0.1l1.6-0.3l2.1,0.7l2.7,0.1l4.5-3.5l0.3-0.9l0.5-0.9l1.5-0.7l1.8-0.5
		l3.6-1.4l7-1.9l2.5-0.8l0.9,0.3l2.5-0.3l4.4-0.7l1.6-1.8l1.2-0.2l4.8,0.7l0.3-0.2l0.3-0.3l0.1-1.6l0-1.4l0.5-0.3l0.5-0.5l0.1-0.8
		l-0.1-2.8l0.2-2.6l0.3-2.3l0.2-0.8l0.9-1.3l1-1.2l2.9-0.6l1.8,0l0.3-0.8l-1.3-0.8l-0.8-1l-0.1-0.5l0.2-0.5l0.4-0.4l2-0.5l1.9-0.5
		l1.9,1l0.5-0.3l0.3-0.9l-0.2-1l-0.1-1.6l-0.8-1l0.2-0.9l0.9-1.4l-0.1-3.1l-0.3-2.8l-0.4-4.7l-0.7-1.5l0-2.2l-0.3-1.2l0.4-1.6
		l0.4-1.1l0.4-2.2l0.3-2.4l0.9-2.4l0.9-1.5l0-0.6l0.4-0.4l0.8,0l0.5-0.6l-0.2-0.8l-1.3-0.8l-1.4-1.2l-1.9-0.3l-1.9-0.3l-0.8-0.8
		l-0.6-1l0.1-0.5l1.5-1l1.9-1l2.6,0l2.9-0.2l1.5-0.3l1.9,0l2.2,0.3l1,0.4l2.9-0.2l4.7-0.7l4.2-0.5l1.5-0.5l0.8,1l0,1.9l0.9,1.2
		l1,0.7l0.7,0.1l2.1-0.3l2.2-0.1l0.8,0.5l0.9,1.1l1,1.1l0.6,0.1l0.7-0.5l0.8-1.2l0.7-1.6l0.4-1.7l0-1.1l-0.3-0.5l-1.8-1l-1.6-1.4
		l0-1l0.2-0.7l0.8-1.5l1.9-2.8l2.1-3.9l1.4-3.1l3.1-4.5l2.7-4.8l4.1-6.8l0.7-1.4l0.7-2.3l0.3-0.9l1-0.3l1.4,0.8l3.2,2.3l2.4,1.9
		l1,0.7l1.6,0.8l2.5,1.1l1.6,0.1l1.4-0.1l1.8,0.3l2.7,0.9l0.9,0.2l1.1,0.2l0.6,0.8l0.1,1.7l0.4,0.8l1.1-0.1l2.5-1l1.6-0.9l2.1-1.3
		l1.8,0.1l1.9,0l0.8-0.7l1-1.8l1.4-1.2l0.5-1.8l-0.2-1.3l-0.4-2.2l0.3-1.4l0.4-4.1l0.2-3.7l1.1-2.8l1.5-3.1l0.5-0.9l0.8-1.2l1.1-1.4
		l1.2-0.3l3.3,0.2l3.1-0.2l1.6-0.4l1.6-0.2l1-0.4l2-2l1-1.2l1.2-3.4l-0.1-1.7l0.6-1.4l0.9-0.8l1.2-0.7l0.8,0l1.6,0l2.5,0.5l1.2,0.6
		l1.3,0.4l0.9-0.2l0.7-0.6l0.9-0.1l1.3-0.1l1.4-0.2l0.7,0.2l0,1l-0.3,0.8l0.1,1.1l0.4,0.8l-0.3,0.7l-0.8,0.3l-0.8,0.5l-0.3,0.8
		l0.8,1.1l0.2,1l1.5,0.8l1.1,0.8l0.4,0.7l-0.2,0.7l-0.7,0.7l-0.7,0.7l-0.1,0.5l0.1,0.6l1.1,0.5l1.3,0.8l2,1.1l1.3,1.7l1.4,0.6
		l0.5,1.5l-0.2,2.1l1.4,1.3l2,1.8l1.1,0.4l0.6,0.9l1,1.2l0.9,0.4l1.1,0.3l2.1-0.7l2.2,0.2l1.1,0.7l0.8,2.2l0.7,0.7l0.4,0.6l0.7,0.6
		l0.8,0.2l1.2-0.3l0.8-0.8l1,0.3l0.3,0.6l0.1,1l0.4,1.3l1.2,1.1l1.7,0.8l0.2,0.5l0.1,1.3l0.4,0.9l0.5,1.2l0.4,2.1l-0.1,1.7l0.2,1
		l0.6,1.6l1,2.6l0.8,2.2l1.2,0.5l1,0.8l0.4,1.6l0.8,3l0,1.9l-0.1,1.4l0.3,0.7l0,0.8l-1.3,3l-1,1.3l-0.2,1.2l0.3,2.1l0.6,1.6L351,548
		l-0.8,1l-1.3,1.3l-0.6,0.7l-0.9,0.6l-1.6,2.5l-0.9,2.9l-0.3,1.5l0.4,1.1l0.7,1.3l0.1,1.1l1.1,2.5l0.2,1.5l0.6,0.1l0.7-0.4l1.5,0.1
		l1.3,0.6l1.2,1.2l1.3,0.7l2,0l1,0.7l1.1,0.6l2.3,0.4l1.8,0.2l2.7,0.3l2.1,0.9l3.8,0.9l2.4,0.2l3.3-0.3l1.9,0.5l5.7,1.3l3.3,1.1
		l2.1,1.1l1.4,1.6l1.6,2.5l1.3,1.2l3.7,0.9l2.4,2.9l1.9,1.2l3.2,2.9l2.3,1.2l2.8,1.1l4.7-0.2l0.2,0.4l-0.4,1.4l-0.4,2l-0.1,1.4
		l0.4,0.8l1.8,0.5l0.8,0.7l0.6,1.4l0.3,0.9l1.3,4.2l2.1,6.2l0.2,2.4l0.8,1.6l2.6,2.5l1.3,1.8l2,2l0.6,1.8l0.1,2.2l0.5,0.6l3.9-0.4
		l3.4-0.2l6-0.4l8.2,1.4l8.5,1.3l7.5,1.1l3.7,0.5l8.4,1.1l4.7-1.3l3.6-1l1.7,0.1l7,1.2l4.1,0.6l5.2,0.7l3.6,0.2l2.9-0.1l1.4,0.3
		l1.3,0.5l0.9,0.7l2.8,3.7l1.5,1.6l3,1.2l6.8,1.3l3.8,0.8l4.4,0.9l2.9,1.4l3.4,1.6l4.4,2.1l4.6-1.2l5-1.3l3.1-0.8l0.3,4.8l4.5,0.1
		l1.4-0.1l2,0.9l1.1-0.5l1-1.1l1.2-1.7l1.9-0.8l3.2-2l0.8-0.5l4.7-2.9l7-3.7l3.1-1.8l0.9-0.4l1.8-0.9l1.2-0.6l2.2-0.6l2.9-0.5
		l3.2-0.9l7.2-1.7l0.9-0.2l4.1-0.8l1.7-0.6l2.6,0l3.4-0.2l2.3,0.1l3-0.5l4.1-0.7l3.3-0.3l1.6-0.6l2.3-1.4l1.5-1.1l2.4-1.4l3-1.5
		l2.1-1.3l1.4-0.9l1.7-0.9l0.4-0.9l0.4-0.7l0.8-1.2l1.4-2.3l1-2l0.5-0.9l1.2-2l1-1.5l1.2-2l1.2-0.7l1.5-0.7l3.9-2.3l0.8-0.5l0.7-0.2
		l1.3-1.6l1-1.4l0.7-1l1.6-0.6l0.8-0.8l0-0.9l-0.4-1.3l-1-1.3l-0.8-1.1l-2.7-2l-1.5-1.3l-1.5-1.7l-0.8-1.7l-1-1l-0.6-0.9l0-1.1
		l0.9-2.2l0.2-1.3l0.2-2.3l0.6-3.5l0.7-1.7l0.8-1.7l1.9-2.3l2-0.7l1.3,0.2l2.7-0.4l1.8-0.1l1.5,0.8l1.8,1.8l1.8,0.5l5.4,0.8l2.3,0
		l1.6-0.2l2.4,0.2l0.8,0l1.3,0.2l0.9-0.5l1.3-1.6l1.6-1.8l0.8-0.5l1.4-0.9l0.6-0.7l1-1.9l1.5-1.6l1.7-2.3l0.8-1.7l0-1l0-1.1l0.5-0.7
		l1.2-0.7l1.4-0.4l2.8,0.4l3.6-0.9l0.8-0.3l3.2-1.1l1.4-0.7l2-0.8l1.3-1.9l1.7-2.3l1.3-1.4l1-0.4l1.1-1.4l0.4-1.3l-0.4-1l-0.4-0.8
		l0.4-1.8l0.8-3.1l1-1.6l0.8-1.3l0.3-1.9l0.7-0.7l1-0.4l1.2-1.4l1-0.4l1.9,0.2l2.6-0.4l1.6-0.3l0.9-0.4l0.2-0.7l-0.2-1l0-2.3l0-0.7
		l0.4-0.4l1.6-0.4l1.2,0.6l0.9,0.5l1-0.1l0.9-0.6l1-2l2.1-1.5l1.2-0.5l2-1.3l1.4,0l2.6-0.3l0.9-0.4l1.1,0l0.7-1.4l0.7-0.4l1.7,0.2
		l1.2,0.7l2.2,0.7l2.5,0l2-0.7l2.2,0l1.2-0.3l0.5-0.6l1.5-1.3l0.1-1.4l-0.5-1.2l-0.2-1.4l-0.8-0.9l-1.4-1.3l-0.7-0.9l-0.4-1.3
		l-1-1.1l-1.9-1.2l-1.2-0.5l-2.8-2.2l-0.9-0.5l-0.4-0.4l-0.5-0.8l-0.9-0.2l-1.2-0.5l-0.7-0.6l-0.7-1.1l-0.4-0.8l-1.1-0.5l-1-0.2
		l-1.1-0.2l-1.8-0.3l-1.3-1.2l-2.3-2.2l-1.2-0.7l-3.7,0.4l-1.4-0.3l-1.4,0.5l-0.8,0.6l-1.9,0.4l-0.9,0.5l-0.9,2l-1.2,2.5l-1.1,1.6
		l-0.7,1.6l-0.4,0.6l-1-0.1l-1.6-1.3l-2.1-1l-1.8-0.3l-0.8-0.2l-2.1,0l-1.5,0.4l-1.8,0.9l-1.9,0.3l-0.9-0.2l-1.2,0.3l-1.9,1.9
		l-0.8,1.9l-1.2,0.8l-1.5-0.9l-1.7-1L714,495l-1.1-1.3l-1.3-3.9l1.4-1.5l1.8-1.7l-0.3-2.1l-0.6-2.3l-0.1-2.7l1.4-2.7l0.6-2.2
		l-0.1-1.2l0.4-2.2l0.4-2.3l0.5-3l1.1-5.4l1.2-6.4l0.6-3.2l3.2,1.3l2,0.6l3.4,0.8l3.2-0.3l3.4,0.9l1.7,0.2l0.8-0.2l3.3-4.7l2.8-4
		l3.4-3.4l2.9-1l2-1.2l1.2-1.4l0.4-2.1l-0.4-2.7l-1-1.4l-1.6-0.2l-0.5-0.5l0.6-0.7l0.2-1.2l-0.1-1.7l0.4-1.7l0.9-1.7l0.3-1.8
		l-0.3-1.8l0.3-1.9l1-2.1l0.3-1.8l-0.3-1.5l0.2-2l1.1-3.7l0.2-4l1.4-3.1l2.7-3.4l1.4-3.1l0.1-2.8l-0.7-2.2l-1.6-1.7l-0.8-1.9l0-2.2
		l-1-1.4l-2-0.6l-2.1,0.2l-2.2,1.1l-1.5-0.3l-0.8-1.7l0.2-1.6l1.2-1.5l1.7-3.2l2.2-5l2.7-3.2l4.9-1.9l3.7-2.4l3.7-2.5l2.8-1.5
		l0.7,0.3l1.7-0.3l2.7-1l2.4-1.3l2-1.6l1.8-0.7l1.5,0.1L784.8,353.5L784.8,353.5"/>
</g>
</svg>
