<?xml version="1.0" encoding="utf-8"?>
<!-- Generator: Adobe Illustrator 26.0.1, SVG Export Plug-In . SVG Version: 6.00 Build 0)  -->
<svg version="1.1" id="Layer_1" xmlns="http://www.w3.org/2000/svg" xmlns:xlink="http://www.w3.org/1999/xlink" x="0px" y="0px"
	 viewBox="0 0 800 800" style="enable-background:new 0 0 800 800;" xml:space="preserve">
<g id="gDNK" transform="matrix(7.2635634,0,0,7.2635634,-807.13774,-1808.3183)">
	<path id="polyF1S61P1-2" d="M161.7,338.3l2.9,1.7l1.9-0.2l1.3,0.7l0.3,1.1l0.2,2.5l-1.4,0.7l-1.5-0.2l-2.1,1l-6.7-3.9l0.1-3.3
		l0.3-1.3l3.2-0.3L161.7,338.3z"/>
	<path id="polyF1S61P2" d="M147.8,339.6l-1,0.3l-1.3-0.6l-2-2.3l-0.2-0.6l1,0.3l1.3,1.2l1.1,0.2l1.4,1L147.8,339.6z"/>
	<path id="polyF1S61P3" d="M180.5,335.9l-0.6,0.4l-2.5-0.2l-2.7,2l-1-0.6l0.3-1.2l0.3-0.5l0.9-0.5l0.6-0.8l0.2-1.2l0.6,0.6l1.7,0.2
		l0.8,0.3l0.7,0.6L180.5,335.9z"/>
	<path id="polyF1S61P4" d="M141.1,338.5l-1.6,0.4l-0.9-0.7l-1.6-0.3l-0.5-4.3l0.2-0.2l0.7,0.3l2.6,2l0.9,2.2L141.1,338.5z"/>
	<path id="polyF1S61P5" d="M151.8,342.2l-0.7,0.2l-1-2.2l-0.1-0.7l1.1-1.4l0.7-1.6l1.9-2.5l1-2.9l0.4,0.1l-0.5,2.6l-2.4,7.2
		L151.8,342.2z"/>
	<path id="polyF1S61P6" d="M220.5,332.5l-0.5,0.5l-2.6-0.6l-3.3-1.7l0.3-3.7l0.7-1.7l6,3.9l0.2,1.6L220.5,332.5z"/>
	<path id="polyF1S61P7" d="M150.3,318.6l0.6,1.4l0.8,3l1.3,3.4l-0.5,1.4l0.3,1.8l-0.3,1.9L150,334l-2.9,0.1l-3-1.1l-4.2-2.1
		l-0.3-1.1l-0.6-0.6l-1.1-3.6l0.1-4.4l2.1-0.5l4.6-2l1,0.3l1.1,1.1l1.3,0.1l1.8-1.5L150.3,318.6z"/>
	<path id="polyF1S61P8" d="M181.8,318.5l-1.4,1.2l-0.3-0.1l-0.5-1.6l0.7-1l0.4-0.9l0.3,0.1l0.5,0.9L181.8,318.5z"/>
	<path id="polyF1S61P9" d="M149.7,313.9l-0.2,0.5l-1-0.5l-0.1-1.8l0.3-1.6l-0.4-1.4l0.5-0.9l1.4,2.1l0.4,1l-0.5,1.2L149.7,313.9z"/>
	<path id="polyF1S61P10" d="M180.2,313.3l0.1,2.8l-0.4,0.8l-0.6,0.6l-1.6,0.6l-1.3,0.9l-1.1,1.4l-0.4,2l1,1.4l1.7,0.7l0.5,2.7
		l-1.4,1.4l-3.6,1.4l-0.3,3.3l0.2,2.6l-0.1,1.8l-0.2,2.6l-2.9,1.2l-2-3.9l-0.1-1.6l-0.6-1.8l-0.2-1.6l-0.7-2.5l-2.8-0.6l-1.1-0.1
		l-1.6,0.5l-0.3-0.2l-1.8-3.4l0.2-3.8l-1-1.9l-0.1-0.9v-0.9l-0.8-0.8l-1-0.4l-0.5-2.1l1.1-0.5l2.7,0.2l0.8-0.2l0.7-0.4l2.1-3.6
		l-0.1-0.7l0.2-1l2.4-0.4l1.1,1.3l-0.2,2.1l0.2,2.8l1.5,0.7l0.5,0.1l0.6-2.1l0.4-1l0.6-0.6l0.2-1.9l-0.4-1.1l-0.7-0.9l2.6-2.4
		l2.7-1.9l1.6-0.1l1.7,0.4l1.5,0.6l0.8,0.5l0.5,0.9l-1,2l-0.2,1.1L180.2,313.3z"/>
	<path id="polyF1S61P11" d="M156.3,273.5l-0.6,0.7l-2-0.9l0.9-1.3l2.2-0.6l1.3,0.2l-1.4,1.3L156.3,273.5z"/>
	<path id="polyF1S61P12" d="M147.1,275.7l-1.5,4.1l-0.6,0.6l-0.1,4.8l0.1,1.1l-0.2,4.4l1.6,1.8l1.6,1l5.4-0.1l0.6,0.8l0.7,1.3
		l-0.5,2.4l-0.6,1.7l-1.6,1.5l-2,1.1l-1.3,0.1l-1.7-2.1l-0.8,0.7l-0.9,1.1l-1.4,5.7l-0.7,3.9l-0.3,0.3l-0.8-0.6l-1.4-0.1l-1.8,0.9
		l0.9,0.8l1,1.4l-0.4,0.7l-1.6,0.8l-1.4,1.6l-0.6,1.1L135,320l-1.1,1.7l0.5,2.2l0.2,1.9l0.5,2.1l-0.5,1.7l-2.2,2.4l-0.8,2.1h1.8
		l1.1,0.5l0.7,0.6l0.7,0.9l-0.5,1.1l0.5,2.8h-0.2l-1-0.2l-0.7-0.6l-1.8,0.4l-2.5,0.9l-1.4-0.1l-1.1-1l-4.4-1.5l-0.7-0.2l-2.9-0.1
		l-0.1-2.3l-0.3-1.6l-1-2.5l1.6-0.6l-0.2-4.8l-0.5-2.5l-4.1-2.6l-3.2-2.5l1-8.3l0.4-2.2l-1.1-4.4l0.3-4.9l0.8-7.8l1-0.3l0.7,0.1
		l2.9,1.5l1.2,0.2l0.7,1.3l1,0.5l0.7-1.3l0.3-2.3l2.4-2.9l1.7-1l1.1-0.5l1.1,1.2l0.8,1.4l0.2-2.9l0.8-5.6l-2.1-0.9l-1.8,0.7
		l-1.8,3.5l-1.7,4.4l-2.6,0.3l-2.1,1.2l-1.8-1.3l-1.1-1.2l0.1-1.7l0.3-1l2.3-3.6l2.9-3.4l2.9,0.1l2.2-1.1l1.3-0.1l3.9,0.3l2-0.7
		l1.8-1.6l4-6.7l2.2-2.8l4.4-1l4-3.2l1.1-0.1l-1.9,2.4l-0.3,0.9l-0.2,1.4l1.4,3.2l-0.3,1.9l0.1,3.7L147.1,275.7z"/>
</g>
</svg>
