<?xml version="1.0" encoding="utf-8"?>
<!-- Generator: Adobe Illustrator 26.0.1, SVG Export Plug-In . SVG Version: 6.00 Build 0)  -->
<svg version="1.1" id="Layer_1" xmlns="http://www.w3.org/2000/svg" xmlns:xlink="http://www.w3.org/1999/xlink" x="0px" y="0px"
	 viewBox="0 0 800 800" style="enable-background:new 0 0 800 800;" xml:space="preserve">
<g id="gDN1">
	<g id="gGRL">
		<path id="polyF1S89P1" d="M334.2,766.6l-1.8,3.5l-7-3.5l10.5-5.3L334.2,766.6z"/>
		<path id="polyF1S89P2" d="M473.1,608.4h-1.8l1.8-7l1.8,1.8L473.1,608.4z"/>
		<path id="polyF1S89P3" d="M299,467.7h-3.5l1.8-12.3l7,3.5l-3.5,1.8L299,467.7z"/>
		<path id="polyF1S89P4" d="M281.5,451.9l1.8,3.5l5.3,1.8l-1.8,3.5l1.8,3.5l-12.3,7l-8.8,1.8l-3.5-1.8l-3.5-5.3l7-1.8l-12.3-7
			l1.8-10.5l5.3,1.8l-3.5-3.5l1.8-8.8l15.8,5.3L281.5,451.9z"/>
		<path id="polyF1S89P5" d="M297.3,423.7l-5.3-3.5l3.5-1.8l3.5,3.5L297.3,423.7z"/>
		<path id="polyF1S89P6" d="M583.9,404.4l3.5,8.8l-5.3,3.5l-1.8,5.3l-5.3-3.5l-10.5,7h-5.3l1.8-15.8l3.5,1.8l7-1.8l7-8.8
			L583.9,404.4z"/>
		<path id="polyF1S89P7" d="M277.9,413.2l-3.5-1.8v-3.5l5.3-3.5L277.9,413.2z"/>
		<path id="polyF1S89P8" d="M274.4,351.6l-5.3,7l-7-7l3.5-1.8L274.4,351.6z"/>
		<path id="polyF1S89P9" d="M601.5,237.4l5.3,7l5.3,1.8l-1.8,3.5l-10.5,1.8l-3.5-8.8L601.5,237.4z"/>
		<path id="polyF1S89P10" d="M589.2,219.8l-12.3-19.3l3.5,1.8L589.2,219.8z"/>
		<path id="polyF1S89P11" d="M193.6,161.8l-3.5-7h3.5l1.8,3.5L193.6,161.8z"/>
		<path id="polyF1S89P12" d="M571.6,168.8l-1.8-8.8l3.5,5.3L571.6,168.8z"/>
		<path id="polyF1S89P13" d="M561,160l-5.3-5.3l-1.8-5.3l1.8-3.5L561,160z"/>
		<path id="polyF1S89P14" d="M545.2,100.2l-1.8,5.3h-5.3l-3.5-5.3l7-7L545.2,100.2z"/>
		<path id="polyF1S89P15" d="M511.8,40.4l-1.8,1.8l-5.3-8.8L511.8,40.4z"/>
		<path id="polyF1S89P16" d="M390.5,54.5L381.7,44l-1.8-8.8l3.5-1.8l7,7V54.5z"/>
		<path id="polyF1S89P17" d="M448.5,0l17.6,5.3v3.5l-22.9,8.8l1.8,3.5l5.3-5.3l14.1-1.8l5.3-5.3l5.3,8.8l3.5-1.8l10.5,3.5l1.8,7
			l-3.5,7l-26.4,12.3l-1.8,3.5l3.5,3.5l7-5.3l12.3-1.8l7,8.8l1.8-12.3l7-3.5l7,19.3L503,80.9l7-19.3V49.2l1.8-1.8l1.8,3.5l10.5,1.8
			l1.8-17.6l8.8-3.5l14.1,3.5V51l-5.3,5.3l3.5,8.8l-8.8,10.5l7,1.8v7l-7,7l-8.8-1.8l-1.8,10.5l3.5,7h5.3l3.5,12.3l5.3,1.8v5.3
			l-3.5,3.5l1.8,7l-3.5,1.8l-1.8,5.3l3.5,1.8l3.5,28.1l3.5,3.5l1.8-10.5l8.8,1.8l5.3,5.3l-7-1.8l-3.5,3.5l3.5,5.3l10.5,3.5l5.3-3.5
			l5.3,7l1.8,8.8h-15.8l-5.3,10.5l-7-1.8l-1.8,3.5l7,3.5l7,8.8l3.5-3.5l3.5,1.8l3.5-1.8l3.5,7l7,5.3l7,14.1v7l-8.8-3.5l-1.8,7
			l-5.3,5.3h-5.3l7,1.8l3.5-5.3l7,14.1l-1.8-12.3l3.5-1.8l14.1,14.1v7l-7,1.8l1.8,3.5l-7,5.3l-8.8-1.8l-3.5-10.5l1.8,17.6l3.5,1.8
			l15.8-1.8l3.5,14.1l-7,1.8l-5.3,8.8l-17.6-3.5l-5.3-7l-1.8,7l-12.3-5.3l10.5,8.8l-8.8,12.3l-14.1-3.5l8.8,3.5v3.5l-8.8,3.5
			l3.5,1.8v-3.5l10.5-3.5l5.3-5.3v-3.5l7-3.5l28.1,8.8l7,26.4l-17.6-3.5l-15.8-19.3l-15.8,15.8l3.5,1.8l12.3-12.3l5.3,10.5l-3.5,7
			l1.8,1.8l3.5-5.3l1.8,3.5l24.6,7l1.8,5.3l5.3-1.8l-3.5,10.5l3.5,7v-7l5.3-1.8l12.3,31.6l-8.8,1.8l-5.3-12.3l3.5,14.1l-3.5,1.8
			l-10.5-1.8l-8.8-8.8v-5.3l-5.3-3.5l-17.6-8.8l-12.3,1.8v3.5l14.1-1.8l3.5,8.8l-7,10.5l-19.3,3.5l5.3,1.8v8.8l-8.8,8.8l17.6-1.8
			l8.8-5.3l1.8,3.5l-5.3,3.5l-3.5,10.5h3.5l1.8-7l15.8-10.5l21.1,1.8l15.8-5.3l1.8,1.8L619,429l1.8,3.5l-8.8,5.3l3.5,3.5l-7,1.8
			l3.5,3.5l-10.5,10.5l3.5,3.5L592.7,480l-29.9,21.1H554l-3.5,5.3h-5.3l1.8,3.5l-5.3,3.5l-17.6-10.5l3.5,17.6L517.1,531l-8.8,36.9
			l-1.8-1.8l-1.8,1.8v5.3L496,582l-8.8-7l3.5,12.3l-5.3,3.5l-1.8,5.3l-3.5-5.3l-3.5,8.8l-3.5-3.5l-5.3,8.8l-3.5,1.8l-3.5-1.8l7-22.9
			l-12.3-1.8l7,3.5l-5.3,12.3l-5.3-3.5l5.3,5.3v5.3l-5.3,3.5l-22.9,3.5l8.8,5.3v3.5l-5.3,5.3l-3.5,1.8l-12.3-1.8l1.8,8.8l5.3-1.8
			l7,12.3l-3.5,7h-3.5l-1.8,3.5l-10.5-1.8l7,5.3l1.8-1.8l5.3,1.8l-1.8,7l1.8,7l-1.8,5.3l-5.3,1.8l-1.8,5.3l1.8,1.8l-5.3,7h-7
			l-3.5-3.5l7,7l-3.5,8.8h-15.8l12.3,5.3l-3.5,14.1l3.5,3.5v5.3l-1.8,3.5h-5.3l3.5,1.8v3.5l-7,28.1l-7,8.8l-12.3-3.5l12.3,7V793
			l-3.5,3.5l-10.5-3.5l5.3,7h-7v-3.5l-5.3,1.8l3.5-12.3l-5.3,7h-5.3l-8.8-5.3v-7h5.3l5.3-8.8l-8.8,7l-12.3-7l-1.8-5.3l5.3-7l1.8-5.3
			l-1.8-1.8l-15.8,12.3l-10.5-1.8h-5.3v3.5l-7-1.8v-3.5l8.8-3.5l-10.5-1.8v-5.3l-8.8-3.5v-8.8l-3.5-1.8l1.8-3.5l-1.8-8.8l8.8-3.5
			l-3.5-1.8l-10.5,1.8l3.5-7l-7-3.5l-3.5-5.3l1.8-7l-1.8-1.8l8.8-10.5l-8.8,7l-8.8-15.8l-5.3-17.6l3.5-5.3l-1.8-3.5l19.3-3.5h-3.5
			l1.8-3.5l-17.6,5.3l-1.8-5.3l8.8-10.5l5.3,1.8l1.8-3.5h7l3.5,8.8v-8.8l-5.3-3.5l-5.3-15.8l1.8,14.1l-5.3,5.3h-3.5l1.8-5.3
			l-10.5,15.8l-1.8,1.8l-1.8-1.8l1.8-29.9l-3.5-7l14.1-10.5l8.8-1.8l-10.5,1.8l-12.3,7l-1.8-5.3h-5.3l3.5-14.1h-3.5v-3.5l22.9-15.8
			h3.5l7-7l-28.1,19.3h-8.8l5.3-15.8l7-5.3h8.8l-14.1-3.5l-3.5-8.8l3.5-8.8l15.8-8.8l24.6,12.3l-7-7l5.3-1.8l-1.8-1.8l-10.5,1.8
			l-7-5.3l-14.1,7h-5.3l12.3-21.1l15.8,8.8l7-5.3l1.8-7h-3.5l-1.8,5.3h-10.5l-10.5-7l10.5-10.5l12.3,8.8l8.8-3.5l1.8-5.3l-5.3,1.8
			l3.5-12.3h8.8l-1.8-3.5L299,480l-3.5-1.8l5.3-14.1l7-3.5l-1.8-5.3l3.5-1.8l-1.8-1.8l-5.3,1.8l-3.5-3.5l-5.3,1.8l-7-3.5L276.2,436
			l-8.8-5.3l-1.8-8.8l5.3-3.5l7,5.3h7l12.3,14.1l7,3.5l1.8-3.5l-5.3-3.5l1.8-10.5l-5.3-5.3l5.3,1.8l3.5-1.8l-15.8-8.8H285v-5.3
			l5.3-5.3l10.5-3.5l-8.8-1.8l-7,3.5l-1.8-1.8l3.5-5.3l-3.5-14.1l1.8-7h-1.8l1.8,17.6l-7,5.3v5.3l-8.8,3.5l-8.8-5.3v-10.5l14.1-17.6
			l-1.8-1.8l-5.3,5.3l-3.5-1.8l5.3-3.5l-1.8-3.5l1.8-1.8l3.5,1.8l5.3-7v-8.8l-7-1.8v-3.5l5.3-5.3v-7l-3.5,1.8l-1.8-5.3l3.5-7v-12.3
			l-8.8-1.8l5.3-1.8l1.8-8.8h3.5l-12.3-33.4l5.3-3.5l-1.8-8.8l-3.5-1.8l-5.3-10.5l-21.1-19.3l-5.3,3.5l-1.8-5.3l-10.5,3.5l-1.8-5.3
			l-7,1.8l-3.5-3.5v7l-8.8-7l-5.3-14.1l14.1-3.5l-10.5-8.8l3.5-7l-7,3.5l-1.8-1.8l1.8-3.5l-1.8-3.5l1.8-3.5l12.3,1.8l3.5,3.5
			l3.5-3.5h5.3l7,3.5l3.5,5.3l3.5-7l-1.8-7l-10.5,1.8l-1.8-5.3l-7,3.5l-5.3-12.3l5.3-1.8l-1.8-1.8l-1.8,1.8l-7-8.8v-10.5l7-8.8
			l12.3,1.8l14.1-1.8l1.8-3.5h12.3l8.8,3.5l7-7l8.8-17.6l5.3-1.8l-1.8-1.8l-8.8,1.8l-5.3-5.3l1.8-7l22.9-15.8h5.3l1.8,7l3.5-10.5
			l7,5.3l10.5-22.9l3.5-1.8l5.3,5.3v5.3l7,14.1l-7-24.6l8.8-3.5H343l3.5-3.5l3.5,3.5l-3.5,21.1l5.3-7l1.8-14.1l7,10.5V58h7l-3.5-7
			V38.7h3.5l22.9,24.6V52.7L394,44l-5.3-12.3l1.8-1.8l10.5,1.8l3.5,3.5l1.8-3.5l-21.1-3.5l1.8-7l1.8,1.8l10.5-7h3.5l3.5,5.3l3.5-8.8
			l8.8,10.5l1.8-5.3l-3.5-1.8l-1.8-5.3h3.5V7L448.5,0z"/>
	</g>
</g>
</svg>
