<?xml version="1.0" encoding="utf-8"?>
<!-- Generator: Adobe Illustrator 26.0.1, SVG Export Plug-In . SVG Version: 6.00 Build 0)  -->
<svg version="1.1" id="Layer_1" xmlns="http://www.w3.org/2000/svg" xmlns:xlink="http://www.w3.org/1999/xlink" x="0px" y="0px"
	 viewBox="0 0 800 800" style="enable-background:new 0 0 800 800;" xml:space="preserve">
<g id="gITA" transform="matrix(3.6281179,0,0,3.6281179,-2.1745981,-1452.7132)">
	<path id="polyF1S107P1-5" d="M101.4,620.7l-0.8,0.2l-1.1-0.7l-0.1-1l0.2-0.3l1.3,0.4l0.5,0.9L101.4,620.7z"/>
	<path id="polyF1S107P2" d="M160.7,587.2l-1,2.5l-0.5,0.9l-3.8,6.1l-0.4,1.4l-0.2,1.5l-0.4,1.3l-0.5,1.3l-0.5,1.6l0.2,1.7l0.3,0.9
		l0.5,0.5l0.9,0.5l0.7,0.8l-0.9,0.8l1.2,1.4l0.9,0.8l0.1,0.9l0,0.9l-1.8,1.8l-0.7,0.9l-0.4,1.1l-0.2,1.2l0.3,1v1h-1.9l-2-0.5l-2,0.4
		l-2.8-1l-1-0.2l-0.9-0.4l-2.5-3.5l-1.9-1.4l-2.1-1.1l-2,0l-2.1,0.2l-1.8-0.6l-3.8-2.3l-3.9-1.8l-1.7-1.3l-0.8-0.8l-0.9-0.6
		l-2.3-0.5l-2-1.3l-0.9,0l-1.9,0.2l-1-0.1l-1-0.5l-2-1.5l-1.3-2.2l-0.4-1l0.8-2.5l1-2.4l0.9-0.7l1.1-0.5l0.6-0.7l0.5-0.9l2.1,2.5
		l0.9,0.6l0.9-0.2l1.6-0.9l0.1-1l1.8-1.3l2.2-0.1l1,0.2l0.6,1.1l0.9,0.3l1,0.1l3.3,2l0.9,0.3l0.9,0l2.5-1l1.9-0.5l4.1,0.3l2.2-0.7
		l1.5-0.1l2.2-0.9l1.6-1.5l0.9-0.4l0.9-0.2l2.3,0l2.3,0.2l0.9-0.4l0.8-0.9l0.9-0.5l1.1,0.2l2.6-1.7l1.2-0.2l1.2,0.5L160.7,587.2z"/>
	<path id="polyF1S107P3" d="M40.6,571.8l-1,2.1l-1-1.5v-1.3l0.1-0.4l1.2,0.5L40.6,571.8z"/>
	<path id="polyF1S107P4" d="M130.9,536.2l-0.7,0.2l-0.5-0.2l-0.2-0.3l0.2-0.8l1.5,0.4v0.5L130.9,536.2z"/>
	<path id="polyF1S107P5" d="M38.3,529.9l-0.5,0.9l-0.8-0.1l0.3-0.7l0.7-1.4l0.9-0.5l0.4,0.5l-0.5,0.8L38.3,529.9z"/>
	<path id="polyF1S107P6" d="M60.3,533.7l0.8,1.4l1.8,5.6l0.2,1.2l-0.4,1.2l-0.5,0.9l-1.8,2.8l0.2,2.3l0.7,1.4l0.1,1.6L61,554
		l-1.3,12.1l-0.6,2.1l-0.4,1.8l-1.3,0.5l-1.6-0.6l-2.1-1.1l-0.9,0l-1,0.3l-0.8-0.3l-0.8-0.6l-0.6,4.1l-1,1.7l-1.4,1l-1.4,0l-1.4-0.4
		l-1.2,0l-0.9-0.8l-0.7-1.4l-1.1-1.8l-1.1-2l0-1.8l-0.1-4l0.4-0.9l0.5-0.8l0.3-1.8l-0.1-1.6l0.4-0.5l0.6,0.5l0.5-0.2V557l0.2-1.4
		l-0.8-1.3l-1.5-0.5l-0.1-1.3l0.2-1.3l0.8-0.9l0.3-1.1l0.1-3.5l-1-1.3l-0.4-1.9l-0.5-1.3l-0.9-1.3l-1-1l-0.6-1l-0.1-2.5l0.4-2.1
		l0.4-0.9l0.4,0.1l1,1.1l0.9,0.3l1.7,0.3l1.7-0.3l2.1-0.9l2-1.1l2.9-3.3l1.8-0.7l0.9-0.9l0.3-1.2l0.8-0.3l0.9,1.2l1.1,0.1l1.7,1
		l0.7,0.9l0.6,1.1l0.6,0.5l0.6,0.3l0.1,0.3l-0.5,0.2l-0.6,1.3l0.4,0.4L60.3,533.7z"/>
	<path id="polyF1S107P7" d="M72.8,491.5l0.5,0.9l0.1,0.5l-0.4,0.5l0.1,1.2l-1.3-1l-2,0.5l-1.2-0.1l-0.4-0.9l0.3-0.5l1.9-0.1l0.6-0.2
		l1.2,0.1L72.8,491.5z"/>
	<path id="polyF1S107P8" d="M98.5,402.5l0.4,1.1l1.7,2.1l0.9,1.6l0.9,1.2l1.4,0.6l1.8,0.3l1.5,0.1l1.6,0.4l5.5,0.9l2.7,0.2l2.1,0
		l3.2,0.6l-0.3,1.3l-0.6,0.3l-1,0.8l-1.3,1l-1.1,1.2l-0.3,1.2l0.4,0.8l0.3,0.3l0.5-0.3l0.6,0.1l0.8,0.4l1.3,0.4l0,0.4l-0.2,0.5l-1,1
		l-0.9,1.1l0,0.6l0.1,0.5l0.4,0.3l1.4-0.2l0.2,0.4l-0.5,2.8l0.2,0.5l1.2,0.4l0.9,0.6l1.7,1.7l0.7,1.4l-0.5,0.5l-1,0.3l-0.9-0.1
		l0.9-0.9l-2.5-3l-1,0l-1.4,1.4l-4-1.2l-0.7,0.5l-0.5,1.1l-1.4,1.4l-1.9,0.6l-2.1,1.5l-2.2,1.1l-1.7,0.8l-1-0.1l1.5-1.7h-0.7
		l-2.1,1.2l-1.2,1l-0.4,1.7l-0.3,2.8l0.9,0.7l1.7,3.6l2,1.5l-0.3,1.5l-0.5,1.2l-1.2,1l-1-0.7h-0.6l-0.4,2.4l1,6.3l1.5,4.4l1.4,1.9
		l3.2,2.9l3.4,1.4l6.2,4.8l3.4,1.5l0.9,0.8l2.2,3.8l1.9,4.4l2.2,7l1.5,3.4l2.9,3.8l6,5.3l5.4,3.8l5,2.3l3.8,0.2l8.9-1.2l1.6,0.1
		l1.7,0.5l0.5,1.7l-0.5,1.2l-1.8,1.4l-1.8,1.8l0,2.3l1.9,1.5l9,3.6l9.2,2.8l2.9,1.6l3.5,2.6l8.1,3.2l1.5,1.8l5.1,3.6l2.5,2.9
		l0.6,2.4l-0.8,2.6l-0.3,1.8l-0.7,1.8l-2.1-0.5l-2.5-1.5l-4.1-6.9l-6.4-0.1L188,540l-2.3-1l-0.2-0.8l-0.6-1l-0.6-0.3h-2.4l-1.6,1.3
		l-1.8,3l-2,4.2l-1.9,6.1l0,2.3l1.4,2.2l3.8,0.9l3.1,1.8l2.1,2l0.5,5.1l1.1,2.8l-1.2,1.8l-2.5-0.2l-3.2,1.4l-2.2,2.1l-0.9,1.9
		l0.6,4.6l-0.4,1.8l-4.2,3.7l-2.1,3.6l-0.5,1.4l-0.8,1.7l-5.7,0.5l-1.4-1.9l-0.2-3l0.9-1.9l2-1l1.2-3.9l-0.6-2.7l0.7-1.3l0.7-0.9
		l1.5-0.6l2.2-0.6v-3.9l-1.8-1.6l-0.8-2.4l-1.1-4.5l-3.2-5.6l-1.8-5.1l-1.4-2.4l-1.8-1.2l-3.2,0.2l-1.6-0.3l-5.8-3.2l-0.5-0.5v-0.9
		l0.9-1.5l-0.7-1.9l-0.8-1.8l-1.2-1.5l-1.3-0.8l-2.5,0.7l-0.9,0.4l-1.6,0l-1.3,0.8l-0.7,0.1l1.8-2.9l-0.6-0.6l-2-1h-2.7l-0.7-0.1
		l-0.4,0.7l-0.5-0.4v-1.2l-3.3-5.4l-2.1-2.2l-1-0.4l-1.8,0.5l-3.2-0.9l-1.8-0.1l-1,0.3l-1.5,0.8l-0.8-0.5l-0.3-0.7l-2.9-2.2
		l-3.6-1.2l-7-7.2l-2.2-2.7l-4.4-2.9l-2.8-4.4l-2.2-1.6l-3.2-1.3l-0.8,0.2l-0.9,0.5l-0.8,0.1l-0.6-0.6l0.6-0.6l0.7-0.3l-0.3-1.7
		l-3.7-4.3l-2.2-1.4l-0.6-0.9l-0.5-1.2l-0.5-0.8l-1-0.5l-0.9,0.1l-1.2-0.3l0-2.1l0.2-1.6l-0.2-1.4l-1.2-3.6l-2-3.1l-1.1-7.3
		l-0.9-2.1l-2.2-1.6l-4.9-1.8l-6.8-4.8l-1.4-0.1l-4.1-1.9l-2.5-0.4l-3.3,1.6l-4.1,4.4l-3.4,4.6l-1.2,0.9l-4.3,1.4l-3.7,0.6v-1.2
		l-0.1-0.9l0.6-0.9l1.1-1.1l1-1.4l0.5-1l-0.2-0.7l-0.4-1l-0.6-0.1l-3.6,0.8l-0.8-0.3l-2.6-1.5l-2.8-1.8l-0.9-1.3l-0.4-1.2l0.3-0.8
		l-0.2-0.8l-0.5-1l0.5-1.1l0.9-1.4l0.5-0.9l0.8-0.2l0.4-0.6l-0.5-2.4l-0.3-0.4l-0.5-0.3l-0.8-0.1l-1.4-0.5l-0.9-0.9l-0.1-1.1
		l-0.5-1.1l-0.8-1l0-1.1l1-0.5l1.4,0l0.9,0.3l2.2-1.6l0.8-0.1l0.7-0.4l0.7-2.3l0.5-0.7l0.1-0.4l-0.4-0.5l-1.7-1.7l-0.7-1.8l-1.1-2
		l-1.1-0.9l-0.2-0.7v-0.9l0.3-0.7l2.1-1.1l1.3-1.2l0.5,0.5l1.1,0.5l3-0.5l1.9-0.6l1.3-0.6l0.8,0.1l2.9,1.2l1-0.5l2.2-1.4l0.4-0.8
		l1.7-2.3l0-0.5l-0.6-1.5l0.2-0.3l2.1-1.4l1-1.3l1.1-0.9h0.8l0.2,0.3l0.1,0.6l-0.1,2.6l0.3,0.8l1.5,1.9l1.1,1.1l2.7,0.8l0.1,0.3
		l-0.8,1.4l1.6,1.7l0.3,1.2l0.7,0.7l1.1-0.3l0.4-0.6l-0.4-1.2l-0.3-1.2l0.1-0.7l0.3-0.8l0.8-1.1l2-2.5l0.7-1.4l0.2-2.3l0-1.8
		l0.6-0.4l1.4,0.3h0.4l0.2,1.1l0.6,1.8l0.7,0.9l0.8,0.3h0.9l2.3-1.1l1.4-0.5l0.8,0.1l0.5,0.8l1,1.9l0.6,0.2l0.7-0.2l0.3-0.3
		l-0.2-0.8l-0.3-1.6l-0.4-1.3l-0.5-0.6l-0.1-0.8l0.4-1.4l0.4-1.1l0.8-0.3l0.9-0.1l1.1,1.2l1.4,0.4l1,0l0.2-0.7l-0.1-0.8l-0.6-1
		l0.1-1.5l0.7-2.8l0.4,0.2l1.5,0l1.6,0.1l1,1.1l1,0.4l1.4,0.1l1-0.2l0.5-0.5l0.5-1.4l1-1.7l1.6-0.9l2.8-0.2l1.4-0.3l1.4,0l1.1,0.3
		l1.1,0l2.8-1.2l2.9-1l0.4,0.1l0.1,0.3l-0.5,0.7L98.5,402.5z"/>
	<path id="polyF1S107P9" d="M104,468.1l0.5,0.9l0.9-0.2l0.4-1.1l-0.2-0.8l-0.9,0.2L104,468.1z"/>
</g>
</svg>
