<?xml version="1.0" encoding="utf-8"?>
<!-- Generator: Adobe Illustrator 26.0.1, SVG Export Plug-In . SVG Version: 6.00 Build 0)  -->
<svg version="1.1" id="Layer_1" xmlns="http://www.w3.org/2000/svg" xmlns:xlink="http://www.w3.org/1999/xlink" x="0px" y="0px"
	 viewBox="0 0 800 800" style="enable-background:new 0 0 800 800;" xml:space="preserve">
<path id="path3681" d="M56.3,400l12.8-25.4l210.9,0.5l4.5-3.8l17.3-100.3l65.1-34.7l2.3-3.1L404,76.4l183.5,0.1l4.5-3.5l17.2-73
	l178.2,129.8l-92.8,0.1l-4.7,4.1l-22.2,553l1.3,3.3l11.5,11.5l-11.7,51.8l-232.4-13.1l-4.8,3.5l-3.5,14.4h-76.7l-3.9,2.2l-10,16.5
	l-27.2-34.8l-7.4,0.2l-37,57.4L153.9,675.1l-3.5-1.7L39,682.6l-3.6,2.3l-17.8,30.5l-5-2.6l40.3-104.2l-8.6-107.7l31.1-58"/>
</svg>
