<?xml version="1.0" encoding="utf-8"?>
<!-- Generator: Adobe Illustrator 26.0.1, SVG Export Plug-In . SVG Version: 6.00 Build 0)  -->
<svg version="1.1" id="Layer_1" xmlns="http://www.w3.org/2000/svg" xmlns:xlink="http://www.w3.org/1999/xlink" x="0px" y="0px"
	 viewBox="0 0 800 800" style="enable-background:new 0 0 800 800;" xml:space="preserve">
<g id="gNZ1">
	<g id="gNZL">
		<path id="polyF1S172P1" d="M310.1,792.7h3.7v3.7h-3.7v3.7v-3.7h-3.7h3.7V792.7z"/>
		<path id="polyF1S172P2" d="M222,730.3v3.7h-3.7v-3.7h-3.7H222z"/>
		<path id="polyF1S172P3" d="M222,715.6h3.7l-3.7,3.7v3.7h-3.7h3.7v3.7h3.7v3.7H222l-3.7-3.7v3.7v-3.7v3.7h-3.7v-3.7l3.7-3.7v-7.3
			H222z"/>
		<path id="polyF1S172P4" d="M570.6,671.6v-3.7h3.7v3.7H570.6z"/>
		<path id="polyF1S172P5" d="M222,605.5v3.7V605.5h-3.7H222z"/>
		<path id="polyF1S172P6" d="M244,568.8h-3.7H244z"/>
		<path id="polyF1S172P7" d="M247.7,550.5v-3.7V550.5z"/>
		<path id="polyF1S172P8" d="M273.4,546.8v-3.7l3.7,3.7H273.4z"/>
		<path id="polyF1S172P9" d="M255,543.1v3.7h3.7v3.7h3.7v3.7h-3.7v3.7v-3.7h3.7v3.7h3.7h-3.7l3.7,3.7h-7.3l-3.7,3.7h-3.7l-3.7,3.7
			h3.7h-3.7v3.7H244v-7.3h3.7v-3.7h3.7v-18.3H255z"/>
		<path id="polyF1S172P10" d="M214.7,499.1v7.3H211v-3.7l-3.7,3.7v-3.7h3.7L214.7,499.1z"/>
		<path id="polyF1S172P11" d="M222,484.4h-3.7v-3.7h3.7V484.4z"/>
		<path id="polyF1S172P14" d="M449.5,297.2v3.7h-7.3h3.7v-3.7H449.5h-3.7H449.5v-3.7V297.2z"/>
		<path id="polyF1S172P15" d="M434.9,278.9v7.3h-7.3h3.7h-3.7v-3.7h3.7v3.7v-7.3v3.7h3.7V278.9z"/>
		<path id="polyF1S172P16" d="M398.2,267.9l3.7,3.7h-7.3v3.7h-3.7h3.7h-3.7h3.7v3.7h-3.7h3.7v3.7h11h-3.7h3.7v3.7h-3.7h3.7v3.7h-3.7
			v3.7h3.7v-3.7v11v-3.7v3.7h7.3l3.7-3.7h3.7h-3.7h3.7v-3.7h7.3h-3.7h3.7v-3.7v3.7v-3.7h3.7v-3.7v3.7h3.7v-3.7h3.7h-3.7v3.7h-7.3
			l3.7,3.7h-3.7h7.3h-3.7v7.3h-3.7h11v-3.7v3.7v-3.7h3.7h-11h3.7v-3.7v3.7v-3.7h3.7v-3.7l-3.7,3.7v-3.7h7.3v3.7h3.7v-3.7v7.3h-3.7
			h3.7h-3.7v-3.7v7.3h-7.3h11h-7.3v11h3.7h-3.7v-3.7h3.7v7.3h-3.7h3.7v3.7h3.7l-3.7,3.7v3.7l-3.7,3.7v3.7h-3.7v3.7h-3.7v-3.7v3.7
			h3.7v3.7h-3.7v3.7h-3.7v3.7h-3.7v3.7l-3.7,3.7v3.7l-3.7,3.7v7.3h-3.7v3.7h-3.7v3.7h-7.3v3.7h-3.7v7.3h-11h11v3.7h-3.7l-3.7,3.7
			h-3.7h7.3v-3.7l3.7,3.7v7.3h-3.7h14.7v7.3l-3.7,3.7v-7.3h-3.7v7.3h3.7h-7.3V411h-7.3l-3.7,3.7V411h7.3v-3.7h-7.3v7.3h-3.7
			l-7.3-7.3l-7.3-3.7l3.7,3.7h3.7v3.7l3.7,3.7l-3.7,3.7l-7.3,3.7v-3.7v3.7l-3.7,3.7h-3.7v3.7l-3.7-3.7V422h-3.7v3.7h3.7v3.7
			l-3.7,3.7h-3.7h3.7l-3.7,3.7v7.3h-3.7h3.7v18.3h-3.7l-7.3-3.7l7.3,3.7h3.7l-3.7,7.3l-3.7,3.7v3.7l-3.7,3.7h3.7v3.7h-3.7v7.3
			l-3.7-3.7l3.7,3.7h-3.7v3.7h-3.7v3.7h7.3h-3.7v3.7h-3.7v3.7v-3.7h3.7v-3.7h3.7v3.7h-3.7v3.7h-7.3l-3.7,3.7v7.3h-3.7v3.7h-3.7
			l-3.7,3.7v7.3h-7.3h3.7v3.7h-7.3v3.7h-14.7v3.7l-3.7-3.7h-3.7v-3.7l-3.7,3.7v-3.7h-3.7h3.7v3.7h-7.3h3.7v-3.7l-3.7,3.7v-3.7h-3.7
			v3.7h3.7h-3.7v-3.7l3.7-3.7h-3.7v3.7v-3.7h-3.7v-3.7h-3.7v3.7H255v-3.7v3.7v-3.7v3.7h-3.7l-3.7-3.7v-3.7l-3.7-3.7h-7.3v7.3h-7.3
			v-3.7l-3.7,3.7v-3.7l-7.3,3.7l-3.7-3.7l3.7-3.7v-3.7h3.7v-3.7h-3.7v7.3h-3.7l3.7-3.7h-3.7v3.7H211h3.7v-3.7l3.7-3.7h-3.7v-3.7v3.7
			l-3.7,3.7h-3.7v-7.3h7.3v-3.7h7.3v-3.7h-3.7v3.7h-3.7l3.7-3.7h-3.7v-3.7h7.3v-3.7v3.7v-3.7h-3.7v3.7h-3.7v-7.3h7.3h-3.7v-3.7v3.7
			v-3.7h-3.7l3.7-3.7v3.7h3.7v3.7h3.7v-3.7v3.7h3.7l-3.7-3.7H222v-3.7h7.3v3.7v-3.7H222v-7.3l3.7,3.7v-3.7H222v-3.7h3.7v3.7h3.7
			l-3.7-3.7h3.7l-3.7-3.7l3.7-3.7h3.7v3.7h3.7H233v-7.3h3.7v3.7v-7.3h3.7v3.7v-3.7h-3.7V455h3.7l3.7-3.7v3.7h3.7v3.7V455H244v-7.3
			l7.3-7.3h-3.7h3.7v-3.7h3.7V433h3.7v-7.3h7.3V422h3.7v3.7h3.7V422h3.7v-3.7h3.7l3.7,3.7h3.7h-3.7v-3.7h-3.7v-3.7h3.7V411h7.3v-3.7
			v3.7h3.7l-3.7-3.7h7.3v-3.7h3.7V400v3.7h3.7V400h-3.7h7.3h-7.3v-3.7h3.7l3.7-3.7h3.7h-3.7l3.7-3.7h3.7v-3.7l-3.7,3.7l3.7-3.7h3.7
			v3.7v-3.7l-3.7-3.7h3.7l3.7-3.7l3.7,3.7h-3.7V378h3.7v-3.7l3.7,3.7v3.7v-7.3l7.3-7.3v-3.7v11h3.7l-3.7-3.7h3.7V367h-3.7v-3.7h3.7
			v-3.7l3.7-7.3h3.7h-3.7v-3.7l3.7-3.7v-11l3.7-3.7v-7.3v3.7v-3.7h3.7l3.7-3.7h3.7v-3.7v3.7v-3.7h3.7v-7.3h3.7v-7.3h3.7h-3.7v-14.7
			h3.7v-3.7h3.7v-3.7h3.7v-3.7l3.7-3.7v3.7h3.7v-3.7h-3.7h3.7v-3.7H398.2z"/>
		<path id="polyF1S172P17" d="M475.2,106.4h-7.3v-3.7h3.7v3.7v-3.7h3.7V106.4z"/>
		<path id="polyF1S172P18" d="M497.2,99.1h-3.7H497.2l-3.7-3.7h3.7V99.1z"/>
		<path id="polyF1S172P19" d="M464.2,91.7h-3.7v-3.7h3.7V91.7z"/>
		<path id="polyF1S172P20" d="M471.6,80.7v-3.7V80.7z"/>
		<path id="polyF1S172P21" d="M482.6,77.1h3.7v11v-3.7h-3.7v-3.7h-3.7v-3.7H482.6l-3.7-3.7h3.7V77.1z"/>
		<path id="polyF1S172P22" d="M401.8,0v7.3h-3.7V3.7v3.7h-3.7h3.7V11V7.3h3.7v7.3l3.7,3.7h-3.7l3.7,3.7h3.7v7.3l3.7-3.7v-7.3h3.7V22
			v-3.7V22h-3.7v3.7h7.3v3.7V22v3.7h7.3v3.7h-3.7h3.7v-3.7h3.7v3.7h3.7V33h7.3l-3.7,3.7V33h-3.7l3.7,3.7h-3.7h3.7v3.7h3.7V44v-3.7
			h3.7h-3.7h3.7l-3.7-3.7h7.3h-3.7v3.7h3.7V44l-3.7-3.7h3.7v11h3.7V55h-3.7v3.7h3.7v3.7h-3.7v-3.7v11l3.7,3.7v3.7h3.7v3.7h3.7v3.7
			h3.7h-7.3v3.7h3.7v3.7l-3.7-3.7v11h3.7v-3.7v3.7h-3.7l3.7,7.3h-3.7v-3.7h-3.7v3.7h3.7h-3.7h3.7v3.7v-3.7h7.3v7.3v-7.3v3.7h7.3v3.7
			h3.7v-3.7v3.7h3.7v11h7.3v-3.7v3.7h3.7h-3.7v-14.7h-3.7h3.7v-3.7h-3.7h3.7h-3.7h3.7v-3.7v3.7v-3.7h-3.7l3.7-3.7h-3.7v-3.7h-3.7
			v-3.7h3.7l3.7,3.7v-3.7v7.3h3.7h-3.7v3.7h11l-3.7,3.7v3.7v-3.7h3.7v11h3.7l-3.7,3.7h3.7v3.7h-3.7v-3.7v3.7h3.7v11h3.7v3.7h3.7v3.7
			l-3.7-3.7v3.7v-3.7h-3.7v-3.7v7.3h3.7v3.7h3.7v-3.7v3.7h3.7l-3.7-3.7l3.7,3.7h7.3v3.7l7.3,3.7h3.7l3.7,3.7h7.3h-3.7l3.7,3.7v-3.7
			v3.7h3.7l3.7-3.7h7.3v-3.7h3.7v-7.3h7.3v-3.7h3.7v-3.7l14.7,3.7v3.7h3.7l3.7,3.7H589v3.7l-3.7,3.7v3.7h-3.7l3.7,3.7h-3.7v18.3
			l-7.3,7.3H567v18.3h-3.7h7.3l-3.7,3.7v3.7h-3.7v-7.3H556l-7.3-3.7v3.7h-7.3l-3.7,3.7v3.7h-3.7v3.7h-3.7v3.7h3.7v7.3h-3.7v3.7h3.7
			v-3.7h3.7v3.7l-3.7,3.7v3.7l-3.7,3.7v7.3l-3.7,3.7v3.7l-3.7-3.7v7.3l-11,11v3.7l-3.7,3.7v7.3h-3.7l-3.7,7.3l-3.7,3.7h-3.7
			l-3.7,3.7h-3.7l-7.3,7.3h-3.7v3.7h-3.7v-11h-11v-3.7h3.7h-11h3.7v-3.7l3.7-3.7v3.7v-7.3h3.7v-3.7l3.7-3.7v-3.7l3.7-3.7v-7.3h3.7
			h-3.7v-3.7h3.7v-7.3h3.7h-3.7v3.7v-3.7l-3.7-3.7v-3.7l-7.3-7.3h-3.7v-3.7h-11v-7.3h-3.7v-3.7h-11l-3.7-3.7v-3.7h-3.7v-7.3l7.3-7.3
			l7.3-3.7h7.3v-3.7l3.7-3.7v-18.3h3.7v-14.7v3.7v-3.7h3.7v3.7h3.7v-3.7h-3.7v-3.7h3.7h-3.7v-7.3h3.7v-3.7h3.7h-3.7l-3.7,3.7v-11
			l-3.7-3.7v-3.7h3.7v-3.7h-3.7v3.7v-3.7l-3.7-3.7v-7.3h3.7h-3.7l3.7,3.7v3.7v-3.7h3.7h-3.7l3.7-3.7v3.7v-3.7h3.7v3.7v-3.7h-3.7
			v-7.3h-3.7v3.7h-3.7l-3.7,3.7V99.1l-7.3-3.7v-7.3v3.7l3.7-3.7v7.3h3.7h-3.7h3.7v3.7v-11h-3.7v-3.7h3.7v-3.7v3.7v-3.7v3.7h-3.7
			v-3.7l3.7,3.7v-7.3v3.7h-3.7h3.7h-3.7v-3.7h-3.7h3.7v3.7h-3.7v-3.7h-7.3v-7.3h-3.7l3.7-3.7h-3.7v3.7l3.7,3.7v3.7h3.7v3.7l3.7,3.7
			v3.7h-3.7l-14.7-25.7l-11-11l3.7-3.7V44v3.7V44v3.7h3.7V44v3.7V44h3.7v-3.7h-3.7V44h-7.3v7.3l-3.7-7.3v-3.7V44l-3.7-3.7h3.7h-3.7
			v-3.7h-3.7h3.7v-11l-3.7-3.7v-3.7h-3.7l-11-14.7V0v3.7h7.3V0l3.7,3.7V0H401.8z"/>
		<g id="gbounty">
			<path id="polyF6S17P1_bounty" d="M586.2,587.3l0-0.1l0.1,0.1l0,0.1L586.2,587.3"/>
			<path id="polyF6S18P1_bounty" d="M587.1,586.9l0,0.2L587.1,586.9L587.1,586.9"/>
			<path id="polyF6S19P1_bounty" d="M587.1,586.8L587.1,586.8v-0.1V586.8"/>
			<path id="polyF6S20P1_bounty" d="M585.8,586.6l0-0.2l0.2-0.1l0.1,0.1L585.8,586.6"/>
			<path id="polyF6S21P1_bounty" d="M585.5,586.3L585.5,586.3L585.5,586.3L585.5,586.3"/>
		</g>
	</g>
</g>
</svg>
