<?xml version="1.0" encoding="utf-8"?>
<!-- Generator: Adobe Illustrator 26.0.1, SVG Export Plug-In . SVG Version: 6.00 Build 0)  -->
<svg version="1.1" id="Layer_1" xmlns="http://www.w3.org/2000/svg" xmlns:xlink="http://www.w3.org/1999/xlink" x="0px" y="0px"
	 viewBox="0 0 800 800" style="enable-background:new 0 0 800 800;" xml:space="preserve">
<path id="path12284-7-4" d="M655.1,95.2l-11.2,5l-108.7,60.7L502.7,213l-6.1,3.2l-28.2,6.7l-6.1,5.3l-11.6,36.2l-42.3,11.4
	l-80.9-25.2l-52.7,66L217,330.8l-9-3.9v-69.2c-10.9-12-24.1-22.7-31.8-34.8v83l-3.6,96.9l-42.3,24.5l-45.9-3.5l-38.6-7.1l-17.7-34.4
	L0,413.9l38.6,69.4l48.8,79.5l4,37.6l-21.3,14.2L95,680.3l17.7-10.3l52.7,34.8l119.5-38l102.2,10.3l102.2-27.7l151.3-104l49.5-62.1
	l20.9-24.5l56-45.1c5-17.6,41.2-90.7,24.6-67.4l7.9-19.5l-42.3-3.5l-3.6,24.1h-21.3L701,323.4l20.9-41.5l35.4,3.5l10.5-17.4
	l6.9-58.9l-24.6-103.6L655.1,95.2z M586.5,409.9l4,0.7l27.4,34.1l-17.3,27.7l-14.1,3.2l-24.9,7.1l-14.1,24.1l-24.6-10.3l-10.5-7.1
	l-3.6-13.8l-9.4-19.2l37.6-32.6L586.5,409.9z"/>
</svg>
