<?xml version="1.0" encoding="utf-8"?>
<!-- Generator: Adobe Illustrator 26.0.1, SVG Export Plug-In . SVG Version: 6.00 Build 0)  -->
<svg version="1.1" id="Layer_1" xmlns="http://www.w3.org/2000/svg" xmlns:xlink="http://www.w3.org/1999/xlink" x="0px" y="0px"
	 viewBox="0 0 800 800" style="enable-background:new 0 0 800 800;" xml:space="preserve">
<g id="gTUR">
	<path id="polyF1S218P1" d="M11.2,325.6L0,322.8l11.2-2.8l2.8,2.8L11.2,325.6z"/>
	<path id="polyF1S218P2" d="M387.4,247l8.4,11.2l11.2,5.6l16.8-5.6l5.6,16.8l11.2,8.4l5.6-5.6h8.4l8.4,2.8l2.8,5.6l53.3,14l42.1-14
		l16.8,8.4h19.6l44.9-28.1l2.8-5.6l8.4,2.8l30.9-2.8l2.8-5.6l8.4-2.8l19.6,19.6h8.4v5.6l8.4,5.6l5.6,14l-5.6,11.2l8.4,16.8l-2.8,2.8
		l11.2,5.6l19.6-2.8l19.6,16.8l-11.2-5.6l-5.6,19.6l-14,2.8v5.6l8.4,11.2l-2.8,5.6l5.6,5.6l5.6,25.3l5.6,2.8l-8.4,25.3l16.8,5.6v14
		l11.2,8.4v8.4h-8.4l-8.4,11.2h-5.6v-11.2l-5.6-5.6l-11.2,5.6l-33.7-5.6l-14,2.8l-11.2,14l-11.2-8.4l-28.1,14h-33.7l-30.9,16.8
		l-39.3,11.2l-8.4-2.8l-5.6,2.8l-14-11.2h-11.2l-30.9,14h-16.8l-16.8-8.4l-5.6,16.8l5.6,14h-8.4l-14,22.5l-11.2-5.6l2.8-2.8
		l-5.6-16.8l16.8-19.6l-2.8-11.2l-5.6-2.8l-28.1,19.6l-28.1-14l-19.6,11.2l-14,16.8l-19.6,8.4h-16.8l-14,5.6l-16.8-8.4l-11.2-16.8
		l-33.7-19.6l-30.9-5.6l-8.4,33.7l-8.4-2.8l-25.3,5.6l-19.6-8.4l-5.6-22.5l-8.4,2.8l-22.5-11.2l-11.2,8.4h-2.8l2.8-5.6l-16.8,2.8
		l-11.2-2.8l22.5-2.8l14-11.2l-39.3-2.8l-2.8,2.8l2.8-8.4h8.4v-5.6l-11.2-8.4l-5.6-16.8l8.4-2.8v-11.2l-36.5-19.6l5.6-5.6l-2.8-11.2
		l2.8-2.8h5.6l2.8,16.8l2.8-5.6l5.6,5.6l14-5.6H42.1l-5.6-14l8.4-2.8l2.8-5.6l-5.6-2.8v-11.2l-5.6-8.4l11.2-14L14,362.1l5.6-28.1
		l25.3-19.6l22.5-2.8l8.4,8.4H87l2.8-2.8l-2.8-5.6h8.4l-2.8,5.6l2.8,2.8l14-2.8l30.9,2.8l-8.4-2.8l-2.8-5.6L174,306l-25.3-8.4
		l-8.4-8.4l2.8-11.2l33.7,5.6l16.8-2.8l19.6,8.4h16.8l5.6-2.8l2.8-8.4l36.5-22.5l39.3-14l58.9,5.6l11.2-8.4l5.6,2.8L387.4,247z"/>
	<path id="polyF1S218P3" d="M78.6,227.4l5.6,8.4l19.6-2.8v14l5.6,8.4l28.1,19.6h5.6l-2.8,11.2l-8.4,2.8l-25.3-8.4l-11.2,5.6
		l-5.6-2.8l-11.2,2.8l-11.2,14l-19.6,8.4l-25.3,19.6l2.8-11.2l8.4-8.4l11.2-2.8l2.8-5.6H19.6v-8.4l14-11.2v-14l11.2-5.6v-14
		l-8.4-5.6v-5.6h8.4l2.8-5.6l16.8-5.6L78.6,227.4z"/>
</g>
</svg>
