<svg width="207" height="51" viewBox="0 0 207 51" fill="none" xmlns="http://www.w3.org/2000/svg">
<g clip-path="url(#clip0_52_205)">
<rect x="155.41" y="6.0083" width="48.9716" height="38.5529" fill="white"/>
<path d="M37.2832 39.6243H29.7275V10.0137H32.7258L44.1792 22.8263L55.8974 10.0137H58.7207V39.6243H51.2251L51.1401 26.4913L44.2241 33.531L37.3331 26.3561L37.2832 39.6243Z" fill="black"/>
<path d="M86.3499 39.6243L84.391 35.8391H72.7628L70.9288 39.6243H63.1533L76.6455 10.0137H80.3084L93.7706 39.6243H86.3499ZM78.4545 21.9L75.0314 29.6256H81.8125L78.4545 21.9Z" fill="black"/>
<path d="M104.939 39.6243H97.3984V10.0137H113.014C113.014 10.0137 121.045 11.1853 121.3 20.0675C121.559 27.2774 116.627 29.1349 116.627 29.1349L123.034 39.6494H114.199L109.282 30.8322L104.949 30.8723L104.939 39.6243ZM112.395 23.9929C113.434 23.357 113.894 22.2354 113.894 20.5481C113.894 18.8608 113.199 17.8995 112.125 17.2686C110.891 16.0219 104.939 16.5927 104.939 16.5927V24.5336C104.939 24.5336 112.15 24.8941 112.405 23.9929H112.395Z" fill="black"/>
<path d="M146.645 16.6928H139.134L139.174 39.6243H131.664L131.584 16.6928H124.558V10.0137H146.645V16.6928Z" fill="black"/>
<path d="M152.142 0V45.4023C152.142 46.8861 152.73 48.3091 153.776 49.3587C154.823 50.4083 156.243 50.9987 157.723 51H207V0H152.142ZM174.808 39.6244L158.418 39.8347V33.4409H162.915L162.795 16.4576H158.798V10.0137H170.291L170.371 33.546L174.808 33.5861V39.6244ZM200.718 24.8191V31.8287C200.719 32.8548 200.518 33.871 200.126 34.8193C199.735 35.7675 199.161 36.6291 198.437 37.3549C197.713 38.0808 196.853 38.6565 195.907 39.0494C194.961 39.4422 193.947 39.6444 192.923 39.6444H186.077C184.008 39.6444 182.024 38.821 180.561 37.3552C179.098 35.8895 178.276 33.9015 178.276 31.8287V17.8295C178.276 15.7566 179.098 13.7687 180.561 12.3029C182.024 10.8372 184.008 10.0137 186.077 10.0137H192.923C193.947 10.0137 194.961 10.2159 195.907 10.6088C196.853 11.0016 197.713 11.5774 198.437 12.3032C199.161 13.029 199.735 13.8907 200.126 14.8389C200.518 15.7871 200.719 16.8033 200.718 17.8295V24.8191Z" fill="black"/>
<path d="M189.97 16.022H189.115C188.218 16.022 187.357 16.3789 186.721 17.0145C186.086 17.65 185.729 18.5122 185.727 19.4116V24.819V30.2916C185.721 30.7298 185.803 31.1649 185.968 31.571C186.132 31.9771 186.376 32.346 186.686 32.6559C186.995 32.9658 187.363 33.2105 187.769 33.3754C188.174 33.5403 188.608 33.6222 189.045 33.6161H189.89C190.801 33.6045 191.672 33.2369 192.317 32.5917C192.962 31.9464 193.33 31.0745 193.343 30.1614V24.819V19.4116C193.343 18.5144 192.988 17.6537 192.356 17.0183C191.723 16.3829 190.865 16.0246 189.97 16.022V16.022Z" fill="black"/>
<path d="M15.9358 18.9409H22.9317C22.9317 18.9409 23.0866 10.0137 12.2479 10.0137C1.4092 10.0137 0.429766 15.7215 0.429766 19.3715C0.429766 23.0215 3.21315 28.2938 11.6932 28.2938C15.9358 28.2938 16.6604 29.8409 16.6604 30.9975C16.6604 32.1541 15.7609 33.7913 12.3778 33.7913C7.41072 33.7913 6.99596 30.7421 6.99596 30.7421L1.52575e-05 30.5719C1.52575e-05 30.5719 -0.0849355 39.6243 12.4228 39.6243C24.9306 39.6243 23.8562 30.657 23.8562 30.657C23.8562 30.657 24.5658 21.9 11.9381 21.9C6.89602 21.9 7.41072 19.4967 7.24082 19.1112C7.07092 18.7256 7.70055 16.0219 11.7382 16.107C15.7759 16.1922 15.9358 18.9409 15.9358 18.9409Z" fill="black"/>
</g>
<defs>
<clipPath id="clip0_52_205">
<rect width="207" height="51" fill="white"/>
</clipPath>
</defs>
</svg>
